<?xml version="1.0" encoding="UTF-8" standalone="no"?>
<!DOCTYPE svg PUBLIC "-//W3C//DTD SVG 1.1//EN" "http://www.w3.org/Graphics/SVG/1.1/DTD/svg11.dtd">
<svg xmlns="http://www.w3.org/2000/svg" version="1.1" viewBox="0.00 0.00 500.00 500.00">
<g stroke-width="2.00" fill="none" stroke-linecap="butt">
<path stroke="#849e7a" vector-effect="non-scaling-stroke" d="
  M 259.52 153.04
  Q 257.60 143.00 262.39 131.69"
/>
<path stroke="#7d8c7b" vector-effect="non-scaling-stroke" d="
  M 231.28 141.67
  Q 238.02 153.07 235.15 160.97"
/>
<path stroke="#1c91b4" vector-effect="non-scaling-stroke" d="
  M 248.94 171.40
  L 249.90 177.09"
/>
<path stroke="#13576d" vector-effect="non-scaling-stroke" d="
  M 249.50 177.76
  Q 247.93 178.74 246.07 177.82
  Q 245.63 177.60 245.17 177.79
  L 242.13 179.05"
/>
<path stroke="#14446c" vector-effect="non-scaling-stroke" d="
  M 235.41 224.97
  Q 243.75 228.73 253.08 225.97
  C 256.83 224.86 261.03 222.42 264.88 220.44"
/>
<path stroke="#1b627c" vector-effect="non-scaling-stroke" d="
  M 264.88 220.44
  L 265.67 225.30"
/>
<path stroke="#77848d" vector-effect="non-scaling-stroke" d="
  M 265.67 225.30
  L 265.24 227.94"
/>
<path stroke="#13576d" vector-effect="non-scaling-stroke" d="
  M 265.24 227.94
  L 264.02 228.00
  A 0.63 0.61 -61.4 0 0 263.67 228.11
  Q 257.06 232.38 249.49 234.48
  Q 249.04 234.61 249.19 235.05
  Q 249.50 235.92 249.50 236.51
  Q 249.50 282.90 249.50 329.37
  Q 249.50 329.96 248.92 330.02
  L 242.18 330.73"
/>
<path stroke="#77848d" vector-effect="non-scaling-stroke" d="
  M 242.18 330.73
  Q 241.30 330.86 240.59 330.35
  Q 240.25 330.11 240.25 329.68
  L 240.26 235.22
  Q 240.26 234.67 239.72 234.54
  C 237.09 233.92 234.56 233.48 232.10 232.34
  Q 200.28 217.63 168.95 202.93
  A 1.17 1.17 0.0 0 0 167.28 203.97
  Q 166.81 239.03 167.06 273.26
  Q 167.14 285.10 167.44 286.87
  C 168.64 293.92 172.64 300.38 179.23 303.59
  Q 222.12 324.49 234.72 330.75
  Q 238.77 332.76 243.10 332.90"
/>
<path stroke="#13576d" vector-effect="non-scaling-stroke" d="
  M 243.10 332.90
  C 252.07 333.61 256.17 330.48 265.86 325.15
  C 280.78 316.95 295.54 308.18 310.65 300.38
  Q 324.76 293.11 325.00 276.52
  Q 325.18 264.56 325.07 242.75"
/>
<path stroke="#1b627c" vector-effect="non-scaling-stroke" d="
  M 325.07 242.75
  Q 324.90 224.16 325.24 205.57
  C 325.52 190.29 320.13 195.54 311.71 199.88
  A 0.70 0.69 78.6 0 1 310.70 199.20
  L 311.13 193.78
  A 1.26 1.24 71.3 0 1 311.53 192.96
  L 313.97 190.72"
/>
<path stroke="#77848d" vector-effect="non-scaling-stroke" d="
  M 201.86 209.47
  Q 201.58 210.29 204.25 210.46
  Q 204.75 210.49 205.19 210.24
  Q 222.44 200.39 239.63 190.44
  C 241.08 189.60 241.80 188.30 241.66 186.73"
/>
<path stroke="#78b3c5" vector-effect="non-scaling-stroke" d="
  M 311.03 254.49
  Q 311.05 267.09 310.74 279.66
  C 310.62 284.48 309.58 288.95 305.69 291.43
  Q 300.91 294.48 285.10 302.78"
/>
<path stroke="#7fc5c4" vector-effect="non-scaling-stroke" d="
  M 285.10 302.78
  L 281.73 300.65"
/>
<path stroke="#78b3c5" vector-effect="non-scaling-stroke" d="
  M 281.73 300.65
  L 281.31 287.02
  A 1.80 1.80 0.0 0 0 278.69 285.47
  L 273.27 288.22
  A 2.56 2.55 76.3 0 1 269.56 285.96
  Q 269.50 278.64 269.48 272.18
  Q 269.47 270.19 268.60 269.83
  Q 267.60 269.42 265.55 269.93
  A 0.51 0.51 0.0 0 1 264.92 269.43
  L 265.24 227.94"
/>
<path stroke="#1b98a4" vector-effect="non-scaling-stroke" d="
  M 281.73 300.65
  Q 281.36 302.05 279.71 301.48
  A 0.88 0.88 0.0 0 0 278.54 302.29
  C 278.48 306.71 283.54 304.82 285.10 302.78"
/>
<path stroke="#1b627c" vector-effect="non-scaling-stroke" d="
  M 318.73 185.71
  Q 315.73 187.06 314.91 189.51"
/>
<path stroke="#1b627c" vector-effect="non-scaling-stroke" d="
  M 281.98 174.07
  Q 282.33 173.26 280.67 172.40
  Q 278.52 171.28 276.98 170.47
  A 2.61 2.60 43.9 0 0 274.47 170.51
  L 250.04 184.48
  Q 249.29 184.90 249.27 184.04
  L 249.24 182.73
  Q 249.23 182.26 249.71 182.22
  Q 249.91 182.21 250.21 182.24"
/>
<path stroke="#78b3c5" vector-effect="non-scaling-stroke" d="
  M 242.18 330.73
  Q 243.74 331.37 243.10 332.90"
/>
<path stroke="#1b627c" vector-effect="non-scaling-stroke" d="
  M 183.67 189.60
  Q 182.64 187.12 178.51 186.47"
/>
<path stroke="#1c91b4" vector-effect="non-scaling-stroke" d="
  M 325.07 242.75
  C 325.45 246.19 323.63 246.12 321.05 246.68
  Q 320.57 246.79 320.24 247.14
  C 318.79 248.68 314.44 252.16 312.72 255.33
  Q 312.55 255.63 312.50 255.30
  Q 312.47 255.09 312.46 254.92
  A 0.57 0.41 48.8 0 0 311.49 254.70
  Q 311.50 254.84 311.50 254.95
  A 0.12 0.12 0.0 0 1 311.26 254.97
  Q 311.23 254.55 311.03 254.49"
/>
<path stroke="#80bed4" vector-effect="non-scaling-stroke" d="
  M 311.03 254.49
  L 311.00 202.13
  Q 310.99 200.33 309.42 201.22
  Q 290.23 212.15 269.94 223.42
  Q 268.02 224.49 265.67 225.30"
/>
<path stroke="#1d7eb3" vector-effect="non-scaling-stroke" d="
  M 264.88 220.44
  Q 264.33 220.97 264.20 219.19"
/>
<path stroke="#7fc5c4" vector-effect="non-scaling-stroke" d="
  M 297.41 228.70
  Q 296.39 230.92 294.69 228.39"
/>
<path stroke="#79a0c4" vector-effect="non-scaling-stroke" d="
  M 294.69 228.39
  C 293.71 218.81 282.22 227.93 292.62 234.03"
/>
<path stroke="#7fc5c4" vector-effect="non-scaling-stroke" d="
  M 292.62 234.03
  Q 293.32 234.77 292.50 235.27"
/>
<path stroke="#79a0c4" vector-effect="non-scaling-stroke" d="
  M 292.50 235.27
  C 287.36 234.64 282.24 237.79 285.42 243.28
  A 0.89 0.87 77.2 0 0 286.10 243.72
  Q 289.84 244.08 294.34 241.59"
/>
<path stroke="#80bed4" vector-effect="non-scaling-stroke" d="
  M 294.34 241.59
  C 291.87 243.72 285.66 247.78 286.57 251.21
  C 287.70 255.51 293.27 250.39 294.61 248.71
  Q 294.89 248.37 295.31 248.52
  Q 295.50 248.59 295.57 248.79"
/>
<path stroke="#79a0c4" vector-effect="non-scaling-stroke" d="
  M 295.57 248.79
  C 293.69 252.15 296.12 253.99 298.18 256.07
  A 1.21 1.19 -67.8 0 1 298.53 256.92
  Q 298.59 264.31 292.80 268.05
  Q 291.26 269.04 290.48 270.31
  A 0.88 0.86 -48.5 0 0 290.53 271.30
  Q 292.33 273.59 293.90 276.05
  C 295.68 278.83 295.36 281.73 295.56 284.91
  Q 295.61 285.59 296.28 285.49
  Q 297.80 285.28 298.78 284.10
  Q 299.13 283.67 299.14 283.12
  C 299.26 278.71 299.12 274.66 300.40 270.38
  C 302.97 261.74 305.62 254.25 307.21 244.99
  Q 307.67 242.35 305.48 240.93"
/>
<path stroke="#80bed4" vector-effect="non-scaling-stroke" d="
  M 305.48 240.93
  C 303.38 239.57 301.37 241.25 299.50 241.98
  Q 298.22 242.48 299.29 241.61
  C 302.74 238.78 306.28 237.54 307.13 232.49
  A 1.80 1.80 0.0 0 0 305.10 230.42
  Q 302.58 230.80 300.26 233.11"
/>
<path stroke="#7fc5c4" vector-effect="non-scaling-stroke" d="
  M 300.26 233.11
  Q 299.64 233.00 299.71 232.46"
/>
<path stroke="#79a0c4" vector-effect="non-scaling-stroke" d="
  M 299.71 232.46
  C 301.34 230.18 305.28 226.04 304.40 223.08
  A 2.06 2.06 0.0 0 0 301.38 221.88
  Q 298.15 223.77 297.41 228.70"
/>
<path stroke="#1c85a3" vector-effect="non-scaling-stroke" d="
  M 299.71 232.46
  L 297.41 228.70"
/>
<path stroke="#23a3b3" vector-effect="non-scaling-stroke" d="
  M 300.26 233.11
  L 298.75 235.41
  Q 298.45 235.86 297.91 235.85
  L 293.32 235.77"
/>
<path stroke="#1c85a3" vector-effect="non-scaling-stroke" d="
  M 293.32 235.77
  Q 292.84 235.21 292.50 235.27"
/>
<path stroke="#1d7eb3" vector-effect="non-scaling-stroke" d="
  M 305.48 240.93
  Q 304.78 244.45 303.09 246.86"
/>
<path stroke="#80bed4" vector-effect="non-scaling-stroke" d="
  M 303.09 246.86
  Q 300.66 246.66 297.50 247.86"
/>
<path stroke="#1d7eb3" vector-effect="non-scaling-stroke" d="
  M 297.50 247.86
  Q 296.20 247.33 295.57 248.79"
/>
<path stroke="#1d7eb3" vector-effect="non-scaling-stroke" d="
  M 294.34 241.59
  Q 295.04 239.55 293.32 235.77"
/>
<path stroke="#1c85a3" vector-effect="non-scaling-stroke" d="
  M 294.69 228.39
  Q 292.33 231.17 292.62 234.03"
/>
<path stroke="#79a0c4" vector-effect="non-scaling-stroke" d="
  M 297.50 247.86
  Q 298.24 250.92 301.02 252.37
  Q 302.02 252.88 302.21 251.78
  L 303.09 246.86"
/>
<path stroke="#80bed4" vector-effect="non-scaling-stroke" d="
  M 292.7043 263.0204
  A 2.99 2.00 129.1 0 0 296.1421 261.9614
  A 2.99 2.00 129.1 0 0 296.4757 258.3796
  A 2.99 2.00 129.1 0 0 293.0379 259.4386
  A 2.99 2.00 129.1 0 0 292.7043 263.0204"
/>
<path stroke="#b4aebe" vector-effect="non-scaling-stroke" d="
  M 182.65 266.80
  Q 182.95 274.07 182.76 281.34
  C 182.58 288.15 190.86 289.64 195.80 291.70
  Q 196.28 291.90 196.33 292.41
  C 196.58 294.83 195.51 301.35 198.46 302.04
  A 1.23 1.22 6.9 0 0 199.96 300.87
  L 200.07 291.33
  A 3.48 3.48 0.0 0 0 197.84 288.04
  L 188.06 284.25
  A 2.12 2.12 0.0 0 1 186.71 282.23
  Q 186.88 274.58 186.60 267.60
  C 186.48 264.61 185.13 262.77 182.22 262.36
  A 1.77 1.77 0.0 0 1 180.75 260.19
  Q 181.63 256.56 183.31 253.23
  C 185.41 249.05 184.86 243.10 184.90 238.52
  C 184.94 233.52 194.74 229.23 198.61 227.30
  A 0.40 0.40 0.0 0 0 198.58 226.57
  C 192.79 224.29 182.01 225.54 180.82 233.06
  Q 180.34 236.09 180.49 245.65
  C 180.60 252.77 170.74 263.03 182.00 266.00
  A 0.87 0.87 0.0 0 1 182.65 266.80"
/>
<path stroke="#d7a69b" vector-effect="non-scaling-stroke" d="
  M 211.51 256.19
  C 211.44 259.00 214.84 265.46 218.14 261.85
  A 0.44 0.44 0.0 0 1 218.90 262.19
  L 218.49 266.46
  Q 218.43 267.10 217.85 266.81
  Q 214.51 265.13 212.24 262.25
  A 0.48 0.48 0.0 0 0 211.48 262.25
  C 208.03 266.70 219.25 269.94 213.54 277.01
  C 212.38 278.46 210.24 278.95 208.56 279.85
  A 1.76 1.75 57.9 0 0 207.97 282.44
  C 211.92 287.86 212.42 290.13 212.73 296.89
  C 212.79 298.37 213.43 299.22 214.94 299.24
  A 1.00 1.00 0.0 0 0 215.95 298.28
  C 216.15 293.31 216.02 288.84 217.57 284.07
  C 219.96 276.70 222.94 269.80 222.30 261.60
  A 1.71 1.68 24.7 0 0 221.97 260.73
  L 219.39 257.31"
/>
<path stroke="#e1b89b" vector-effect="non-scaling-stroke" d="
  M 219.39 257.31
  C 220.07 254.99 222.48 254.43 221.07 251.37
  Q 219.38 247.68 213.35 248.45
  Q 211.96 248.62 213.21 248.01
  C 216.23 246.52 221.77 242.48 217.34 238.87
  C 213.20 235.49 209.98 242.65 208.48 245.14
  Q 208.05 245.86 208.09 245.02
  C 208.24 241.92 208.67 237.77 206.71 235.33
  C 204.80 232.96 201.40 233.21 201.30 236.56
  C 201.22 239.49 204.29 242.97 205.89 245.23
  A 0.19 0.19 0.0 0 1 205.60 245.48
  C 196.65 236.83 194.28 252.13 205.22 251.14
  Q 205.37 251.12 205.42 251.27
  Q 205.47 251.41 205.53 251.57
  A 0.44 0.44 0.0 0 1 205.16 252.16
  C 195.85 253.08 204.60 268.22 209.97 253.78
  A 0.34 0.34 0.0 0 1 210.60 253.77
  L 211.51 256.19"
/>
<path stroke="#dc7f51" vector-effect="non-scaling-stroke" d="
  M 219.39 257.31
  Q 216.20 251.60 211.51 256.19"
/>
<path stroke="#7fc5c4" vector-effect="non-scaling-stroke" d="
  M 213.53 272.45
  A 2.31 2.31 0.0 0 0 211.22 270.14
  A 2.31 2.31 0.0 0 0 208.91 272.45
  A 2.31 2.31 0.0 0 0 211.22 274.76
  A 2.31 2.31 0.0 0 0 213.53 272.45"
/>
</g>
<path fill="#22aaa3" d="
  M 259.52 153.04
  Q 257.60 143.00 262.39 131.69
  Q 264.03 129.48 266.47 126.52
  Q 275.99 114.93 289.80 109.65
  C 299.59 105.91 300.86 113.01 298.34 120.45
  C 292.06 138.96 277.97 148.55 259.52 153.04
  Z"
/>
<path fill="#22aaa3" d="
  M 247.31 116.94
  Q 254.37 123.82 252.29 133.85
  C 250.57 142.22 241.00 142.99 239.10 134.13
  Q 237.19 125.19 243.01 117.88
  C 243.95 116.71 246.26 115.91 247.31 116.94
  Z"
/>
<path fill="#e69151" d="
  M 231.28 141.67
  Q 238.02 153.07 235.15 160.97
  C 219.49 159.42 206.94 155.08 199.85 139.82
  C 197.44 134.63 195.61 123.94 205.04 125.11
  Q 214.45 126.29 222.34 132.66
  Q 228.43 137.58 231.28 141.67
  Z"
/>
<path fill="#e69151" d="
  M 262.39 131.69
  Q 257.60 143.00 259.52 153.04
  C 258.18 155.02 252.86 162.27 249.99 159.65
  C 248.94 158.68 249.27 157.20 249.21 155.82
  C 248.93 148.83 257.34 136.89 262.39 131.69
  Z"
/>
<circle fill="#e69151" cx="303.42" cy="142.96" r="4.17"/>
<path fill="#1386a4" d="
  M 231.28 141.67
  C 241.07 150.69 244.92 159.02 248.94 171.40
  L 249.90 177.09
  Q 249.88 177.52 249.50 177.76
  Q 247.93 178.74 246.07 177.82
  Q 245.63 177.60 245.17 177.79
  L 242.13 179.05
  Q 240.96 168.77 235.15 160.97
  Q 238.02 153.07 231.28 141.67
  Z"
/>
<path fill="#249cc3" d="
  M 313.31 163.93
  C 308.99 160.38 313.19 151.14 317.78 149.38
  A 0.95 0.95 0.0 0 1 318.73 149.54
  C 322.60 152.73 326.41 160.27 321.31 164.06
  Q 317.17 167.12 313.31 163.93
  Z"
/>
<circle fill="#e69151" cx="181.15" cy="155.44" r="4.20"/>
<path fill="#22aaa3" d="
  M 298.37 165.16
  A 2.34 2.33 6.8 0 1 296.38 166.72
  C 289.96 167.33 281.39 159.87 277.43 155.46
  A 1.08 1.07 54.5 0 1 277.70 153.81
  C 280.68 152.15 284.36 152.39 287.75 153.13
  C 291.89 154.03 300.30 159.58 298.37 165.16
  Z"
/>
<path fill="#249cc3" d="
  M 249.90 177.09
  L 248.94 171.40
  Q 258.56 165.67 267.98 160.30
  C 269.99 159.16 272.54 158.84 273.58 161.25
  A 2.03 2.02 -26.9 0 1 272.74 163.81
  L 249.90 177.09
  Z"
/>
<path fill="#249cc3" d="
  M 202.23 160.60
  A 1.42 1.41 19.0 0 1 203.20 162.58
  Q 199.54 170.37 191.90 174.22
  A 2.20 2.14 -57.1 0 1 190.89 174.45
  C 182.75 174.23 194.31 158.81 202.23 160.60
  Z"
/>
<path fill="#249cc3" d="
  M 183.67 189.60
  Q 182.64 187.12 178.51 186.47
  Q 197.02 175.37 215.59 165.04
  C 218.56 163.38 220.90 163.52 223.39 165.61
  Q 223.93 166.05 223.33 166.40
  L 183.67 189.60
  Z"
/>
<path fill="#249cc3" d="
  M 318.73 185.71
  Q 315.73 187.06 314.91 189.51
  L 281.98 174.07
  Q 282.33 173.26 280.67 172.40
  Q 278.52 171.28 276.98 170.47
  A 2.61 2.60 43.9 0 0 274.47 170.51
  L 250.04 184.48
  Q 249.29 184.90 249.27 184.04
  L 249.24 182.73
  Q 249.23 182.26 249.71 182.22
  Q 249.91 182.21 250.21 182.24
  L 277.46 166.49
  Q 277.98 166.19 278.51 166.45
  L 318.73 185.71
  Z"
/>
<path fill="#122835" d="
  M 281.98 174.07
  L 213.95 213.41
  A 0.85 0.85 0.0 0 0 214.01 214.92
  L 235.41 224.97
  Q 243.75 228.73 253.08 225.97
  C 256.83 224.86 261.03 222.42 264.88 220.44
  L 265.67 225.30
  L 265.24 227.94
  L 264.02 228.00
  A 0.63 0.61 -61.4 0 0 263.67 228.11
  Q 257.06 232.38 249.49 234.48
  Q 249.04 234.61 249.19 235.05
  Q 249.50 235.92 249.50 236.51
  Q 249.50 282.90 249.50 329.37
  Q 249.50 329.96 248.92 330.02
  L 242.18 330.73
  Q 241.30 330.86 240.59 330.35
  Q 240.25 330.11 240.25 329.68
  L 240.26 235.22
  Q 240.26 234.67 239.72 234.54
  C 237.09 233.92 234.56 233.48 232.10 232.34
  Q 200.28 217.63 168.95 202.93
  A 1.17 1.17 0.0 0 0 167.28 203.97
  Q 166.81 239.03 167.06 273.26
  Q 167.14 285.10 167.44 286.87
  C 168.64 293.92 172.64 300.38 179.23 303.59
  Q 222.12 324.49 234.72 330.75
  Q 238.77 332.76 243.10 332.90
  C 252.07 333.61 256.17 330.48 265.86 325.15
  C 280.78 316.95 295.54 308.18 310.65 300.38
  Q 324.76 293.11 325.00 276.52
  Q 325.18 264.56 325.07 242.75
  Q 324.90 224.16 325.24 205.57
  C 325.52 190.29 320.13 195.54 311.71 199.88
  A 0.70 0.69 78.6 0 1 310.70 199.20
  L 311.13 193.78
  A 1.26 1.24 71.3 0 1 311.53 192.96
  L 313.97 190.72
  L 314.91 189.51
  Q 315.73 187.06 318.73 185.71
  C 326.70 189.16 331.57 191.38 331.65 201.19
  Q 331.93 236.12 331.63 271.06
  C 331.51 286.43 328.28 298.65 314.58 306.32
  Q 289.55 320.32 264.47 334.21
  C 252.63 340.76 244.18 344.21 232.32 338.43
  Q 196.41 320.94 179.06 312.67
  Q 165.58 306.24 161.50 292.95
  Q 160.07 288.30 160.04 278.99
  Q 159.92 243.14 160.01 207.24
  C 160.04 195.72 168.23 191.90 178.51 186.47
  Q 182.64 187.12 183.67 189.60
  L 173.93 195.42
  A 0.69 0.69 0.0 0 0 174.00 196.64
  L 201.86 209.47
  Q 201.58 210.29 204.25 210.46
  Q 204.75 210.49 205.19 210.24
  Q 222.44 200.39 239.63 190.44
  C 241.08 189.60 241.80 188.30 241.66 186.73
  Q 242.64 182.89 242.13 179.05
  L 245.17 177.79
  Q 245.63 177.60 246.07 177.82
  Q 247.93 178.74 249.50 177.76
  Q 249.41 180.20 250.21 182.24
  Q 249.91 182.21 249.71 182.22
  Q 249.23 182.26 249.24 182.73
  L 249.27 184.04
  Q 249.29 184.90 250.04 184.48
  L 274.47 170.51
  A 2.61 2.60 43.9 0 1 276.98 170.47
  Q 278.52 171.28 280.67 172.40
  Q 282.33 173.26 281.98 174.07
  Z"
/>
<path fill="#dcdfe5" d="
  M 241.66 186.73
  C 241.80 188.30 241.08 189.60 239.63 190.44
  Q 222.44 200.39 205.19 210.24
  Q 204.75 210.49 204.25 210.46
  Q 201.58 210.29 201.86 209.47
  L 241.66 186.73
  Z"
/>
<path fill="#249cc3" d="
  M 313.97 190.72
  L 311.53 192.96
  A 1.26 1.24 71.3 0 0 311.13 193.78
  L 310.70 199.20
  A 0.70 0.69 78.6 0 0 311.71 199.88
  C 320.13 195.54 325.52 190.29 325.24 205.57
  Q 324.90 224.16 325.07 242.75
  C 325.45 246.19 323.63 246.12 321.05 246.68
  Q 320.57 246.79 320.24 247.14
  C 318.79 248.68 314.44 252.16 312.72 255.33
  Q 312.55 255.63 312.50 255.30
  Q 312.47 255.09 312.46 254.92
  A 0.57 0.41 48.8 0 0 311.49 254.70
  Q 311.50 254.84 311.50 254.95
  A 0.12 0.12 0.0 0 1 311.26 254.97
  Q 311.23 254.55 311.03 254.49
  L 311.00 202.13
  Q 310.99 200.33 309.42 201.22
  Q 290.23 212.15 269.94 223.42
  Q 268.02 224.49 265.67 225.30
  L 264.88 220.44
  Q 264.33 220.97 264.20 219.19
  L 313.97 190.72
  Z"
/>
<path fill="#dcdfe5" d="
  M 311.03 254.49
  Q 311.05 267.09 310.74 279.66
  C 310.62 284.48 309.58 288.95 305.69 291.43
  Q 300.91 294.48 285.10 302.78
  L 281.73 300.65
  L 281.31 287.02
  A 1.80 1.80 0.0 0 0 278.69 285.47
  L 273.27 288.22
  A 2.56 2.55 76.3 0 1 269.56 285.96
  Q 269.50 278.64 269.48 272.18
  Q 269.47 270.19 268.60 269.83
  Q 267.60 269.42 265.55 269.93
  A 0.51 0.51 0.0 0 1 264.92 269.43
  L 265.24 227.94
  L 265.67 225.30
  Q 268.02 224.49 269.94 223.42
  Q 290.23 212.15 309.42 201.22
  Q 310.99 200.33 311.00 202.13
  L 311.03 254.49
  Z
  M 297.41 228.70
  Q 296.39 230.92 294.69 228.39
  C 293.71 218.81 282.22 227.93 292.62 234.03
  Q 293.32 234.77 292.50 235.27
  C 287.36 234.64 282.24 237.79 285.42 243.28
  A 0.89 0.87 77.2 0 0 286.10 243.72
  Q 289.84 244.08 294.34 241.59
  C 291.87 243.72 285.66 247.78 286.57 251.21
  C 287.70 255.51 293.27 250.39 294.61 248.71
  Q 294.89 248.37 295.31 248.52
  Q 295.50 248.59 295.57 248.79
  C 293.69 252.15 296.12 253.99 298.18 256.07
  A 1.21 1.19 -67.8 0 1 298.53 256.92
  Q 298.59 264.31 292.80 268.05
  Q 291.26 269.04 290.48 270.31
  A 0.88 0.86 -48.5 0 0 290.53 271.30
  Q 292.33 273.59 293.90 276.05
  C 295.68 278.83 295.36 281.73 295.56 284.91
  Q 295.61 285.59 296.28 285.49
  Q 297.80 285.28 298.78 284.10
  Q 299.13 283.67 299.14 283.12
  C 299.26 278.71 299.12 274.66 300.40 270.38
  C 302.97 261.74 305.62 254.25 307.21 244.99
  Q 307.67 242.35 305.48 240.93
  C 303.38 239.57 301.37 241.25 299.50 241.98
  Q 298.22 242.48 299.29 241.61
  C 302.74 238.78 306.28 237.54 307.13 232.49
  A 1.80 1.80 0.0 0 0 305.10 230.42
  Q 302.58 230.80 300.26 233.11
  Q 299.64 233.00 299.71 232.46
  C 301.34 230.18 305.28 226.04 304.40 223.08
  A 2.06 2.06 0.0 0 0 301.38 221.88
  Q 298.15 223.77 297.41 228.70
  Z
  M 292.7043 263.0204
  A 2.99 2.00 129.1 0 0 296.1421 261.9614
  A 2.99 2.00 129.1 0 0 296.4757 258.3796
  A 2.99 2.00 129.1 0 0 293.0379 259.4386
  A 2.99 2.00 129.1 0 0 292.7043 263.0204
  Z"
/>
<path fill="#dcdfe5" d="
  M 242.18 330.73
  Q 243.74 331.37 243.10 332.90
  Q 238.77 332.76 234.72 330.75
  Q 222.12 324.49 179.23 303.59
  C 172.64 300.38 168.64 293.92 167.44 286.87
  Q 167.14 285.10 167.06 273.26
  Q 166.81 239.03 167.28 203.97
  A 1.17 1.17 0.0 0 1 168.95 202.93
  Q 200.28 217.63 232.10 232.34
  C 234.56 233.48 237.09 233.92 239.72 234.54
  Q 240.26 234.67 240.26 235.22
  L 240.25 329.68
  Q 240.25 330.11 240.59 330.35
  Q 241.30 330.86 242.18 330.73
  Z
  M 182.65 266.80
  Q 182.95 274.07 182.76 281.34
  C 182.58 288.15 190.86 289.64 195.80 291.70
  Q 196.28 291.90 196.33 292.41
  C 196.58 294.83 195.51 301.35 198.46 302.04
  A 1.23 1.22 6.9 0 0 199.96 300.87
  L 200.07 291.33
  A 3.48 3.48 0.0 0 0 197.84 288.04
  L 188.06 284.25
  A 2.12 2.12 0.0 0 1 186.71 282.23
  Q 186.88 274.58 186.60 267.60
  C 186.48 264.61 185.13 262.77 182.22 262.36
  A 1.77 1.77 0.0 0 1 180.75 260.19
  Q 181.63 256.56 183.31 253.23
  C 185.41 249.05 184.86 243.10 184.90 238.52
  C 184.94 233.52 194.74 229.23 198.61 227.30
  A 0.40 0.40 0.0 0 0 198.58 226.57
  C 192.79 224.29 182.01 225.54 180.82 233.06
  Q 180.34 236.09 180.49 245.65
  C 180.60 252.77 170.74 263.03 182.00 266.00
  A 0.87 0.87 0.0 0 1 182.65 266.80
  Z
  M 211.51 256.19
  C 211.44 259.00 214.84 265.46 218.14 261.85
  A 0.44 0.44 0.0 0 1 218.90 262.19
  L 218.49 266.46
  Q 218.43 267.10 217.85 266.81
  Q 214.51 265.13 212.24 262.25
  A 0.48 0.48 0.0 0 0 211.48 262.25
  C 208.03 266.70 219.25 269.94 213.54 277.01
  C 212.38 278.46 210.24 278.95 208.56 279.85
  A 1.76 1.75 57.9 0 0 207.97 282.44
  C 211.92 287.86 212.42 290.13 212.73 296.89
  C 212.79 298.37 213.43 299.22 214.94 299.24
  A 1.00 1.00 0.0 0 0 215.95 298.28
  C 216.15 293.31 216.02 288.84 217.57 284.07
  C 219.96 276.70 222.94 269.80 222.30 261.60
  A 1.71 1.68 24.7 0 0 221.97 260.73
  L 219.39 257.31
  C 220.07 254.99 222.48 254.43 221.07 251.37
  Q 219.38 247.68 213.35 248.45
  Q 211.96 248.62 213.21 248.01
  C 216.23 246.52 221.77 242.48 217.34 238.87
  C 213.20 235.49 209.98 242.65 208.48 245.14
  Q 208.05 245.86 208.09 245.02
  C 208.24 241.92 208.67 237.77 206.71 235.33
  C 204.80 232.96 201.40 233.21 201.30 236.56
  C 201.22 239.49 204.29 242.97 205.89 245.23
  A 0.19 0.19 0.0 0 1 205.60 245.48
  C 196.65 236.83 194.28 252.13 205.22 251.14
  Q 205.37 251.12 205.42 251.27
  Q 205.47 251.41 205.53 251.57
  A 0.44 0.44 0.0 0 1 205.16 252.16
  C 195.85 253.08 204.60 268.22 209.97 253.78
  A 0.34 0.34 0.0 0 1 210.60 253.77
  L 211.51 256.19
  Z
  M 213.53 272.45
  A 2.31 2.31 0.0 0 0 211.22 270.14
  A 2.31 2.31 0.0 0 0 208.91 272.45
  A 2.31 2.31 0.0 0 0 211.22 274.76
  A 2.31 2.31 0.0 0 0 213.53 272.45
  Z"
/>
<path fill="#1660a3" d="
  M 264.20 219.19
  Q 264.33 220.97 264.88 220.44
  C 261.03 222.42 256.83 224.86 253.08 225.97
  Q 243.75 228.73 235.41 224.97
  C 246.56 228.02 255.20 225.27 264.20 219.19
  Z"
/>
<path fill="#1660a3" d="
  M 299.71 232.46
  L 297.41 228.70
  Q 298.15 223.77 301.38 221.88
  A 2.06 2.06 0.0 0 1 304.40 223.08
  C 305.28 226.04 301.34 230.18 299.71 232.46
  Z"
/>
<path fill="#1660a3" d="
  M 294.69 228.39
  Q 292.33 231.17 292.62 234.03
  C 282.22 227.93 293.71 218.81 294.69 228.39
  Z"
/>
<path fill="#8b7c97" d="
  M 182.00 266.00
  C 170.74 263.03 180.60 252.77 180.49 245.65
  Q 180.34 236.09 180.82 233.06
  C 182.01 225.54 192.79 224.29 198.58 226.57
  A 0.40 0.40 0.0 0 1 198.61 227.30
  C 194.74 229.23 184.94 233.52 184.90 238.52
  C 184.86 243.10 185.41 249.05 183.31 253.23
  Q 181.63 256.56 180.75 260.19
  A 1.77 1.77 0.0 0 0 182.22 262.36
  C 185.13 262.77 186.48 264.61 186.60 267.60
  Q 186.88 274.58 186.71 282.23
  A 2.12 2.12 0.0 0 0 188.06 284.25
  L 197.84 288.04
  A 3.48 3.48 0.0 0 1 200.07 291.33
  L 199.96 300.87
  A 1.23 1.22 6.9 0 1 198.46 302.04
  C 195.51 301.35 196.58 294.83 196.33 292.41
  Q 196.28 291.90 195.80 291.70
  C 190.86 289.64 182.58 288.15 182.76 281.34
  Q 182.95 274.07 182.65 266.80
  A 0.87 0.87 0.0 0 0 182.00 266.00
  Z"
/>
<path fill="#1386a4" d="
  M 265.24 227.94
  L 264.92 269.43
  A 0.51 0.51 0.0 0 0 265.55 269.93
  Q 267.60 269.42 268.60 269.83
  Q 269.47 270.19 269.48 272.18
  Q 269.50 278.64 269.56 285.96
  A 2.56 2.55 76.3 0 0 273.27 288.22
  L 278.69 285.47
  A 1.80 1.80 0.0 0 1 281.31 287.02
  L 281.73 300.65
  Q 281.36 302.05 279.71 301.48
  A 0.88 0.88 0.0 0 0 278.54 302.29
  C 278.48 306.71 283.54 304.82 285.10 302.78
  Q 300.91 294.48 305.69 291.43
  C 309.58 288.95 310.62 284.48 310.74 279.66
  Q 311.05 267.09 311.03 254.49
  Q 311.23 254.55 311.26 254.97
  A 0.12 0.12 0.0 0 0 311.50 254.95
  Q 311.50 254.84 311.49 254.70
  A 0.57 0.41 48.8 0 1 312.46 254.92
  Q 312.47 255.09 312.50 255.30
  Q 312.55 255.63 312.72 255.33
  C 314.44 252.16 318.79 248.68 320.24 247.14
  Q 320.57 246.79 321.05 246.68
  C 323.63 246.12 325.45 246.19 325.07 242.75
  Q 325.18 264.56 325.00 276.52
  Q 324.76 293.11 310.65 300.38
  C 295.54 308.18 280.78 316.95 265.86 325.15
  C 256.17 330.48 252.07 333.61 243.10 332.90
  Q 243.74 331.37 242.18 330.73
  L 248.92 330.02
  Q 249.50 329.96 249.50 329.37
  Q 249.50 282.90 249.50 236.51
  Q 249.50 235.92 249.19 235.05
  Q 249.04 234.61 249.49 234.48
  Q 257.06 232.38 263.67 228.11
  A 0.63 0.61 -61.4 0 1 264.02 228.00
  L 265.24 227.94
  Z"
/>
<path fill="#22aaa3" d="
  M 294.69 228.39
  Q 296.39 230.92 297.41 228.70
  L 299.71 232.46
  Q 299.64 233.00 300.26 233.11
  L 298.75 235.41
  Q 298.45 235.86 297.91 235.85
  L 293.32 235.77
  Q 292.84 235.21 292.50 235.27
  Q 293.32 234.77 292.62 234.03
  Q 292.33 231.17 294.69 228.39
  Z"
/>
<path fill="#249cc3" d="
  M 305.48 240.93
  Q 304.78 244.45 303.09 246.86
  Q 300.66 246.66 297.50 247.86
  Q 296.20 247.33 295.57 248.79
  Q 295.50 248.59 295.31 248.52
  Q 294.89 248.37 294.61 248.71
  C 293.27 250.39 287.70 255.51 286.57 251.21
  C 285.66 247.78 291.87 243.72 294.34 241.59
  Q 295.04 239.55 293.32 235.77
  L 297.91 235.85
  Q 298.45 235.86 298.75 235.41
  L 300.26 233.11
  Q 302.58 230.80 305.10 230.42
  A 1.80 1.80 0.0 0 1 307.13 232.49
  C 306.28 237.54 302.74 238.78 299.29 241.61
  Q 298.22 242.48 299.50 241.98
  C 301.37 241.25 303.38 239.57 305.48 240.93
  Z"
/>
<path fill="#e69151" d="
  M 219.39 257.31
  Q 216.20 251.60 211.51 256.19
  L 210.60 253.77
  A 0.34 0.34 0.0 0 0 209.97 253.78
  C 204.60 268.22 195.85 253.08 205.16 252.16
  A 0.44 0.44 0.0 0 0 205.53 251.57
  Q 205.47 251.41 205.42 251.27
  Q 205.37 251.12 205.22 251.14
  C 194.28 252.13 196.65 236.83 205.60 245.48
  A 0.19 0.19 0.0 0 0 205.89 245.23
  C 204.29 242.97 201.22 239.49 201.30 236.56
  C 201.40 233.21 204.80 232.96 206.71 235.33
  C 208.67 237.77 208.24 241.92 208.09 245.02
  Q 208.05 245.86 208.48 245.14
  C 209.98 242.65 213.20 235.49 217.34 238.87
  C 221.77 242.48 216.23 246.52 213.21 248.01
  Q 211.96 248.62 213.35 248.45
  Q 219.38 247.68 221.07 251.37
  C 222.48 254.43 220.07 254.99 219.39 257.31
  Z"
/>
<path fill="#1660a3" d="
  M 292.50 235.27
  Q 292.84 235.21 293.32 235.77
  Q 295.04 239.55 294.34 241.59
  Q 289.84 244.08 286.10 243.72
  A 0.89 0.87 77.2 0 1 285.42 243.28
  C 282.24 237.79 287.36 234.64 292.50 235.27
  Z"
/>
<path fill="#1660a3" d="
  M 305.48 240.93
  Q 307.67 242.35 307.21 244.99
  C 305.62 254.25 302.97 261.74 300.40 270.38
  C 299.12 274.66 299.26 278.71 299.14 283.12
  Q 299.13 283.67 298.78 284.10
  Q 297.80 285.28 296.28 285.49
  Q 295.61 285.59 295.56 284.91
  C 295.36 281.73 295.68 278.83 293.90 276.05
  Q 292.33 273.59 290.53 271.30
  A 0.88 0.86 -48.5 0 1 290.48 270.31
  Q 291.26 269.04 292.80 268.05
  Q 298.59 264.31 298.53 256.92
  A 1.21 1.19 -67.8 0 0 298.18 256.07
  C 296.12 253.99 293.69 252.15 295.57 248.79
  Q 296.20 247.33 297.50 247.86
  Q 298.24 250.92 301.02 252.37
  Q 302.02 252.88 302.21 251.78
  L 303.09 246.86
  Q 304.78 244.45 305.48 240.93
  Z"
/>
<path fill="#dcdfe5" d="
  M 303.09 246.86
  L 302.21 251.78
  Q 302.02 252.88 301.02 252.37
  Q 298.24 250.92 297.50 247.86
  Q 300.66 246.66 303.09 246.86
  Z"
/>
<path fill="#d26d51" d="
  M 219.39 257.31
  L 221.97 260.73
  A 1.71 1.68 24.7 0 1 222.30 261.60
  C 222.94 269.80 219.96 276.70 217.57 284.07
  C 216.02 288.84 216.15 293.31 215.95 298.28
  A 1.00 1.00 0.0 0 1 214.94 299.24
  C 213.43 299.22 212.79 298.37 212.73 296.89
  C 212.42 290.13 211.92 287.86 207.97 282.44
  A 1.76 1.75 57.9 0 1 208.56 279.85
  C 210.24 278.95 212.38 278.46 213.54 277.01
  C 219.25 269.94 208.03 266.70 211.48 262.25
  A 0.48 0.48 0.0 0 1 212.24 262.25
  Q 214.51 265.13 217.85 266.81
  Q 218.43 267.10 218.49 266.46
  L 218.90 262.19
  A 0.44 0.44 0.0 0 0 218.14 261.85
  C 214.84 265.46 211.44 259.00 211.51 256.19
  Q 216.20 251.60 219.39 257.31
  Z"
/>
<ellipse fill="#249cc3" cx="0.00" cy="0.00" transform="translate(294.59,260.70) rotate(129.1)" rx="2.99" ry="2.00"/>
<circle fill="#22aaa3" cx="211.22" cy="272.45" r="2.31"/>
<path fill="#22aaa3" d="
  M 281.73 300.65
  L 285.10 302.78
  C 283.54 304.82 278.48 306.71 278.54 302.29
  A 0.88 0.88 0.0 0 1 279.71 301.48
  Q 281.36 302.05 281.73 300.65
  Z"
/>
<path fill="#000000" d="
  M 334.27 327.47
  L 343.20 328.85
  A 0.73 0.73 0.0 0 1 343.58 330.12
  L 339.94 333.42
  Q 339.52 333.80 338.97 333.68
  L 334.76 332.78
  A 0.85 0.85 0.0 0 0 333.76 333.83
  Q 335.38 339.97 329.42 342.42
  A 0.22 0.22 0.0 0 1 329.11 342.23
  L 328.57 333.51
  A 1.77 1.76 3.1 0 0 327.09 331.87
  L 319.91 330.71
  A 0.60 0.60 0.0 0 1 319.61 329.67
  L 323.42 326.31
  Q 323.95 325.84 324.64 326.01
  L 327.26 326.66
  A 0.79 0.79 0.0 0 0 328.23 325.83
  L 327.97 322.53
  A 0.86 0.86 0.0 0 1 328.25 321.83
  L 331.62 318.77
  Q 333.04 317.48 333.15 319.40
  L 333.59 326.73
  A 0.81 0.80 2.7 0 0 334.27 327.47
  Z"
/>
<path fill="#000000" d="
  M 185.62 353.10
  A 0.24 0.24 0.0 0 0 185.20 352.87
  C 177.95 361.79 170.13 359.78 161.60 354.37
  A 0.85 0.85 0.0 0 1 161.30 353.26
  L 172.42 331.72
  Q 172.99 330.63 174.08 331.19
  C 181.53 334.98 187.54 337.96 187.17 347.43
  A 0.43 0.43 0.0 0 0 188.00 347.59
  L 190.38 340.91
  A 1.75 1.75 0.0 0 1 192.72 339.90
  L 198.95 342.60
  A 2.26 2.25 54.2 0 0 199.99 342.77
  Q 201.16 342.68 201.67 343.48
  Q 202.02 344.04 201.76 345.03
  Q 199.81 352.28 198.05 359.56
  Q 197.25 362.88 200.14 364.29
  C 204.37 366.35 205.68 363.62 206.66 360.04
  Q 208.49 353.27 210.34 346.29
  A 0.74 0.74 0.0 0 1 211.25 345.76
  L 215.60 346.92
  A 0.58 0.58 0.0 0 1 216.02 347.60
  Q 213.68 358.82 211.57 365.01
  C 207.97 375.59 190.11 370.81 191.74 360.44
  C 192.29 356.90 194.01 353.04 194.26 349.69
  A 0.42 0.42 0.0 0 0 193.44 349.51
  L 187.54 365.30
  A 0.85 0.84 20.2 0 1 186.45 365.80
  L 183.41 364.66
  Q 181.54 363.96 182.24 362.09
  L 185.62 353.10
  Z
  M 175.43 338.97
  L 169.13 351.18
  A 0.87 0.87 0.0 0 0 169.50 352.35
  L 169.65 352.43
  A 7.60 7.40 -62.7 0 0 179.72 349.07
  L 179.84 348.82
  A 7.60 7.40 -62.7 0 0 176.75 338.67
  L 176.60 338.60
  A 0.87 0.87 0.0 0 0 175.43 338.97
  Z"
/>
<path fill="#000000" d="
  M 308.76 349.83
  C 310.57 357.57 301.16 360.32 295.75 362.86
  A 0.99 0.99 0.0 0 1 294.44 362.40
  L 283.60 340.41
  A 0.71 0.70 -27.7 0 1 283.90 339.47
  Q 288.03 337.21 292.52 335.31
  C 298.08 332.94 302.73 338.18 301.05 343.61
  Q 300.90 344.09 301.30 344.41
  Q 301.84 344.84 302.58 344.64
  Q 303.18 344.48 303.75 344.70
  L 306.50 345.78
  A 0.38 0.38 0.0 0 0 307.01 345.38
  Q 306.19 338.30 311.99 334.77
  C 320.79 329.43 330.72 339.10 323.51 347.25
  Q 317.40 354.17 309.26 349.45
  Q 308.58 349.06 308.76 349.83
  Z
  M 320.02 342.28
  A 3.82 3.82 0.0 0 0 316.20 338.46
  A 3.82 3.82 0.0 0 0 312.38 342.28
  A 3.82 3.82 0.0 0 0 316.20 346.10
  A 3.82 3.82 0.0 0 0 320.02 342.28
  Z
  M 291.08 341.93
  L 292.87 345.48
  A 0.86 0.86 0.0 0 0 294.02 345.86
  L 294.12 345.81
  A 3.41 2.78 -26.7 0 0 295.92 341.80
  L 295.86 341.67
  A 3.41 2.78 -26.7 0 0 291.56 340.72
  L 291.46 340.77
  A 0.86 0.86 0.0 0 0 291.08 341.93
  Z
  M 295.86 351.92
  L 297.78 355.70
  A 1.11 1.11 0.0 0 0 299.28 356.19
  L 300.35 355.64
  A 3.94 3.05 -27.0 0 0 302.48 351.13
  L 302.32 350.81
  A 3.94 3.05 -27.0 0 0 297.42 349.88
  L 296.34 350.43
  A 1.11 1.11 0.0 0 0 295.86 351.92
  Z"
/>
<path fill="#000000" d="
  M 272.07 369.77
  C 265.07 377.25 255.10 367.44 259.38 359.22
  Q 262.16 353.87 269.22 355.52
  A 0.62 0.61 0.1 0 0 269.96 354.79
  L 267.53 344.21
  A 0.67 0.66 76.5 0 1 268.01 343.42
  L 271.73 342.43
  A 1.09 1.08 -13.9 0 1 273.07 343.23
  L 278.77 367.70
  Q 278.99 368.63 278.18 369.11
  Q 275.59 370.68 272.89 369.58
  Q 272.42 369.39 272.07 369.77
  Z
  M 271.87 363.22
  A 3.85 3.85 0.0 0 0 268.02 359.37
  A 3.85 3.85 0.0 0 0 264.17 363.22
  A 3.85 3.85 0.0 0 0 268.02 367.07
  A 3.85 3.85 0.0 0 0 271.87 363.22
  Z"
/>
<circle fill="#000000" cx="252.70" cy="350.64" r="3.26"/>
<path fill="#000000" d="
  M 252.33 372.85
  Q 252.63 372.25 252.49 371.25
  Q 251.62 365.17 250.89 358.53
  Q 250.77 357.44 251.87 357.38
  L 255.44 357.20
  Q 256.23 357.16 256.32 357.94
  L 258.18 372.58
  A 0.76 0.76 0.0 0 1 257.50 373.43
  L 253.30 373.85
  Q 252.75 373.91 252.24 374.13
  Q 249.27 375.43 245.99 374.49
  Q 245.55 374.37 245.39 373.94
  L 243.95 370.04
  A 0.84 0.82 -10.1 0 0 243.17 369.51
  L 234.79 369.50
  A 1.67 1.67 0.0 0 0 233.22 370.60
  L 231.88 374.35
  A 0.98 0.98 0.0 0 1 230.96 375.00
  L 226.22 375.00
  A 0.60 0.60 0.0 0 1 225.66 374.18
  L 234.87 350.50
  A 3.89 3.89 0.0 0 1 242.08 350.42
  L 251.40 372.82
  A 0.51 0.51 0.0 0 0 252.33 372.85
  Z
  M 236.05 363.57
  A 0.58 0.58 0.0 0 0 236.60 364.34
  L 240.73 364.28
  A 0.58 0.58 0.0 0 0 241.26 363.49
  L 239.12 358.03
  A 0.58 0.58 0.0 0 0 238.04 358.05
  L 236.05 363.57
  Z"
/>
<rect fill="#000000" x="-5.12" y="-2.43" transform="translate(283.89,357.54) rotate(-19.6)" width="10.24" height="4.86" rx="1.28"/>
</svg>
