<?xml version="1.0" encoding="UTF-8" standalone="no"?>
<svg xmlns="http://www.w3.org/2000/svg" version="1.2" baseProfile="tiny" viewBox="0.00 0.00 500.00 500.00">
<g stroke-width="2.00" fill="none" stroke-linecap="butt">
<path stroke="#8fd5d1" vector-effect="non-scaling-stroke" d="
  M 280.07 86.45
  Q 272.39 92.82 266.80 100.65"
/>
<path stroke="#efd0a5" vector-effect="non-scaling-stroke" d="
  M 266.80 100.65
  C 258.23 108.72 250.22 121.90 248.91 133.97
  Q 248.50 137.79 252.79 137.69
  Q 253.22 137.68 253.58 137.43
  Q 258.45 133.95 261.55 128.80
  Q 261.78 128.42 262.48 128.45"
/>
<path stroke="#8fd5d1" vector-effect="non-scaling-stroke" d="
  M 262.48 128.45
  Q 263.66 128.62 264.19 128.44
  C 278.72 123.62 288.71 119.14 298.52 108.85"
/>
<path stroke="#95ded3" vector-effect="non-scaling-stroke" d="
  M 298.52 108.85
  Q 308.68 97.95 311.50 83.59
  C 312.58 78.07 310.64 71.52 303.48 73.50
  Q 290.21 77.18 280.07 86.45"
/>
<path stroke="#25b4a5" vector-effect="non-scaling-stroke" d="
  M 298.52 108.85
  L 298.29 104.64
  Q 298.27 104.13 298.58 103.72
  Q 300.73 100.91 298.29 98.46
  Q 298.03 98.19 298.20 97.86
  Q 298.36 97.58 298.13 97.37
  Q 296.76 96.06 296.70 94.31
  Q 296.69 93.91 296.30 93.86
  C 292.36 93.34 290.84 90.11 287.38 89.18
  A 1.66 1.65 -11.9 0 1 286.55 88.64
  Q 285.78 87.70 284.52 88.27
  Q 279.61 90.52 280.07 86.45"
/>
<path stroke="#7fa576" vector-effect="non-scaling-stroke" d="
  M 262.48 128.45
  C 258.78 120.06 262.69 108.52 266.80 100.65"
/>
<path stroke="#8fd5d1" vector-effect="non-scaling-stroke" d="
  M 252.06 92.03
  C 243.95 68.27 231.24 98.30 237.70 109.00
  C 241.43 115.17 248.31 114.15 251.48 108.23
  C 254.18 103.20 253.87 97.33 252.06 92.03"
/>
<path stroke="#f2c1a8" vector-effect="non-scaling-stroke" d="
  M 186.22 108.94
  C 193.87 129.45 210.62 137.99 231.47 138.39"
/>
<path stroke="#8fc5ce" vector-effect="non-scaling-stroke" d="
  M 231.47 138.39
  Q 232.66 140.96 234.31 143.60
  C 237.66 148.96 239.33 153.86 239.95 160.30"
/>
<path stroke="#88939a" vector-effect="non-scaling-stroke" d="
  M 239.95 160.30
  Q 240.83 165.99 239.46 170.91"
/>
<path stroke="#c9cad7" vector-effect="non-scaling-stroke" d="
  M 239.46 170.91
  L 189.79 199.26"
/>
<path stroke="#88939a" vector-effect="non-scaling-stroke" d="
  M 189.79 199.26
  L 186.02 197.51"
/>
<path stroke="#c9cad7" vector-effect="non-scaling-stroke" d="
  M 186.02 197.51
  L 181.98 195.77"
/>
<path stroke="#88939a" vector-effect="non-scaling-stroke" d="
  M 181.98 195.77
  Q 181.63 195.31 180.55 195.03"
/>
<path stroke="#c9cad7" vector-effect="non-scaling-stroke" d="
  M 180.55 195.03
  L 177.20 193.41"
/>
<path stroke="#88939a" vector-effect="non-scaling-stroke" d="
  M 177.20 193.41
  L 155.22 183.30
  Q 153.58 182.55 155.14 181.63
  L 169.24 173.30"
/>
<path stroke="#abd2eb" vector-effect="non-scaling-stroke" d="
  M 169.24 173.30
  L 217.14 145.30
  Q 217.62 145.02 217.18 144.67
  C 213.50 141.70 210.48 141.62 206.22 144.07
  Q 183.90 156.88 161.27 170.08"
/>
<path stroke="#88939a" vector-effect="non-scaling-stroke" d="
  M 161.27 170.08
  C 150.25 176.41 137.53 180.90 137.53 196.26
  Q 137.54 209.00 137.43 221.74"
/>
<path stroke="#c9cad7" vector-effect="non-scaling-stroke" d="
  M 137.43 221.74
  Q 136.68 241.38 137.58 261.01"
/>
<path stroke="#88939a" vector-effect="non-scaling-stroke" d="
  M 137.58 261.01
  C 137.28 287.25 133.39 314.78 159.43 327.33
  Q 192.19 343.12 224.92 358.99
  C 241.28 366.93 251.77 364.33 267.07 355.82
  Q 295.86 339.82 324.65 323.72
  C 342.49 313.74 351.81 303.24 351.91 281.06
  Q 352.10 234.19 351.96 187.31
  Q 351.95 182.08 347.70 176.24"
/>
<path stroke="#c9cad7" vector-effect="non-scaling-stroke" d="
  M 347.70 176.24
  Q 344.45 172.36 339.38 171.27"
/>
<path stroke="#88939a" vector-effect="non-scaling-stroke" d="
  M 339.38 171.27
  L 335.83 169.53"
/>
<path stroke="#abd2eb" vector-effect="non-scaling-stroke" d="
  M 335.83 169.53
  L 284.33 144.97"
/>
<path stroke="#c9cad7" vector-effect="non-scaling-stroke" d="
  M 284.33 144.97
  C 281.96 147.40 279.24 148.12 276.95 149.39
  Q 263.27 157.01 249.57 164.96"
/>
<path stroke="#88939a" vector-effect="non-scaling-stroke" d="
  M 249.57 164.96
  L 249.49 159.22"
/>
<path stroke="#8fc5ce" vector-effect="non-scaling-stroke" d="
  M 249.49 159.22
  Q 249.46 158.90 249.59 158.74"
/>
<path stroke="#abd2eb" vector-effect="non-scaling-stroke" d="
  M 249.59 158.74
  Q 250.06 158.81 250.23 158.71
  Q 264.27 150.54 278.29 142.31
  C 282.75 139.70 277.34 135.12 273.06 137.56
  Q 260.97 144.46 248.72 151.61"
/>
<path stroke="#8fc5ce" vector-effect="non-scaling-stroke" d="
  M 248.72 151.61
  C 247.12 146.82 245.67 141.60 243.63 137.36
  Q 237.19 123.91 225.86 113.76"
/>
<path stroke="#efd0a5" vector-effect="non-scaling-stroke" d="
  M 225.86 113.76
  Q 217.00 102.17 203.88 96.54
  C 192.47 91.64 180.64 92.93 186.22 108.94"
/>
<path stroke="#7f9674" vector-effect="non-scaling-stroke" d="
  M 225.86 113.76
  Q 229.38 119.02 231.03 124.42"
/>
<path stroke="#e2914e" vector-effect="non-scaling-stroke" d="
  M 231.03 124.42
  Q 224.01 122.84 217.17 120.26
  C 214.67 119.32 213.35 117.29 209.81 117.04
  C 205.24 116.72 198.02 112.63 193.95 110.34
  Q 191.69 109.06 186.22 108.94"
/>
<path stroke="#818777" vector-effect="non-scaling-stroke" d="
  M 231.03 124.42
  Q 234.28 132.72 231.47 138.39"
/>
<path stroke="#3b98ba" vector-effect="non-scaling-stroke" d="
  M 248.72 151.61
  L 249.59 158.74"
/>
<path stroke="#185969" vector-effect="non-scaling-stroke" d="
  M 249.49 159.22
  Q 247.56 159.51 246.01 158.56
  Q 245.53 158.27 245.01 158.46
  L 239.95 160.30"
/>
<path stroke="#88939a" vector-effect="non-scaling-stroke" d="
  M 289.94 155.08
  L 204.82 204.47
  A 1.08 1.08 0.0 0 0 204.33 205.75
  Q 204.37 205.86 204.71 206.04"
/>
<path stroke="#525e71" vector-effect="non-scaling-stroke" d="
  M 204.71 206.04
  Q 205.19 207.61 208.01 207.47"
/>
<path stroke="#88939a" vector-effect="non-scaling-stroke" d="
  M 208.01 207.47
  L 215.68 211.09"
/>
<path stroke="#525e71" vector-effect="non-scaling-stroke" d="
  M 215.68 211.09
  Q 221.80 215.25 228.62 217.12"
/>
<path stroke="#88939a" vector-effect="non-scaling-stroke" d="
  M 228.62 217.12
  Q 230.08 217.25 231.42 218.37"
/>
<path stroke="#525e71" vector-effect="non-scaling-stroke" d="
  M 231.42 218.37
  Q 237.58 221.66 245.29 220.28"
/>
<path stroke="#88939a" vector-effect="non-scaling-stroke" d="
  M 245.29 220.28
  L 248.97 220.24"
/>
<path stroke="#525e71" vector-effect="non-scaling-stroke" d="
  M 248.97 220.24
  L 252.86 219.67
  A 0.08 0.08 0.0 0 0 252.85 219.51
  L 250.85 219.55"
/>
<path stroke="#88939a" vector-effect="non-scaling-stroke" d="
  M 250.85 219.55
  Q 259.79 216.88 267.83 211.48"
/>
<path stroke="#1e6979" vector-effect="non-scaling-stroke" d="
  M 267.83 211.48
  Q 270.19 215.15 269.46 219.75"
/>
<path stroke="#78848e" vector-effect="non-scaling-stroke" d="
  M 269.46 219.75
  Q 269.39 220.92 268.88 221.85"
/>
<path stroke="#18686b" vector-effect="non-scaling-stroke" d="
  M 268.88 221.85
  C 262.37 225.25 256.98 228.53 249.80 230.43
  Q 249.27 230.57 249.27 231.12
  L 249.55 289.51"
/>
<path stroke="#12526d" vector-effect="non-scaling-stroke" d="
  M 249.55 289.51
  L 249.18 349.06
  Q 249.18 349.57 248.76 349.86
  Q 248.02 350.36 247.02 350.36"
/>
<path stroke="#346586" vector-effect="non-scaling-stroke" d="
  M 247.02 350.36
  L 238.74 350.75"
/>
<path stroke="#707c87" vector-effect="non-scaling-stroke" d="
  M 238.74 350.75
  Q 237.83 350.32 237.81 349.19
  Q 237.70 338.37 237.74 301.99"
/>
<path stroke="#78848e" vector-effect="non-scaling-stroke" d="
  M 237.74 301.99
  L 237.74 231.05
  Q 237.74 230.53 237.23 230.48
  C 228.49 229.60 220.64 224.72 212.92 221.17
  Q 180.60 206.33 149.14 191.27
  A 1.83 1.83 0.0 0 0 146.52 192.92
  L 146.56 245.75"
/>
<path stroke="#707c87" vector-effect="non-scaling-stroke" d="
  M 146.56 245.75
  Q 146.22 267.19 146.42 288.60
  C 146.53 300.27 150.23 311.58 161.31 316.95
  C 182.45 327.20 203.83 337.21 224.68 348.03
  C 230.69 351.14 234.56 352.85 239.91 353.62"
/>
<path stroke="#346586" vector-effect="non-scaling-stroke" d="
  M 239.91 353.62
  L 248.87 353.51"
/>
<path stroke="#12526d" vector-effect="non-scaling-stroke" d="
  M 248.87 353.51
  Q 254.64 352.45 261.09 348.86
  Q 291.01 332.21 320.94 315.54
  Q 332.07 309.34 335.60 305.59
  C 344.97 295.61 343.95 282.38 343.72 269.49"
/>
<path stroke="#155177" vector-effect="non-scaling-stroke" d="
  M 343.72 269.49
  L 343.73 246.24"
/>
<path stroke="#1a5f7c" vector-effect="non-scaling-stroke" d="
  M 343.73 246.24
  Q 343.78 217.14 343.73 188.05
  C 343.72 181.63 340.44 179.80 334.83 183.14
  Q 330.61 185.66 326.22 187.98"
/>
<path stroke="#1e6979" vector-effect="non-scaling-stroke" d="
  M 326.22 187.98
  L 326.22 177.98"
/>
<path stroke="#88939a" vector-effect="non-scaling-stroke" d="
  M 326.22 177.98
  L 330.31 175.49
  A 0.65 0.63 81.3 0 0 330.60 175.08
  Q 330.82 174.23 329.53 173.80"
/>
<path stroke="#525e71" vector-effect="non-scaling-stroke" d="
  M 339.38 171.27
  L 347.70 176.24"
/>
<path stroke="#525e71" vector-effect="non-scaling-stroke" d="
  M 137.58 261.01
  Q 138.58 241.37 137.43 221.74"
/>
<path stroke="#525e71" vector-effect="non-scaling-stroke" d="
  M 177.20 193.41
  Q 178.59 195.24 180.55 195.03"
/>
<path stroke="#525e71" vector-effect="non-scaling-stroke" d="
  M 181.98 195.77
  Q 182.67 197.29 186.02 197.51"
/>
<path stroke="#525e71" vector-effect="non-scaling-stroke" d="
  M 189.79 199.26
  L 192.82 200.51
  Q 193.34 200.72 193.82 200.44
  L 238.48 174.86
  Q 238.89 174.62 238.96 174.15
  L 239.46 170.91"
/>
<path stroke="#525e71" vector-effect="non-scaling-stroke" d="
  M 282.37 149.91
  L 249.94 168.25
  A 0.36 0.36 0.0 0 1 249.41 167.84
  Q 249.90 166.10 249.57 164.96"
/>
<path stroke="#95d5de" vector-effect="non-scaling-stroke" d="
  M 326.22 177.98
  L 267.83 211.48"
/>
<path stroke="#c9cad7" vector-effect="non-scaling-stroke" d="
  M 250.85 219.55
  Q 249.60 219.29 248.97 220.24"
/>
<path stroke="#c9cad7" vector-effect="non-scaling-stroke" d="
  M 245.29 220.28
  Q 238.41 220.28 231.42 218.37"
/>
<path stroke="#c9cad7" vector-effect="non-scaling-stroke" d="
  M 228.62 217.12
  L 215.68 211.09"
/>
<path stroke="#c9cad7" vector-effect="non-scaling-stroke" d="
  M 208.01 207.47
  L 204.71 206.04"
/>
<path stroke="#346586" vector-effect="non-scaling-stroke" d="
  M 335.83 169.53
  L 329.53 173.80"
/>
<path stroke="#abd2eb" vector-effect="non-scaling-stroke" d="
  M 329.53 173.80
  L 289.94 155.08"
/>
<path stroke="#346586" vector-effect="non-scaling-stroke" d="
  M 289.94 155.08
  L 290.63 154.49
  Q 291.08 154.10 290.54 153.85
  L 282.37 149.91"
/>
<path stroke="#759dc3" vector-effect="non-scaling-stroke" d="
  M 282.37 149.91
  L 284.33 144.97"
/>
<path stroke="#1994a4" vector-effect="non-scaling-stroke" d="
  M 268.79 275.20
  L 265.04 279.08
  Q 264.92 279.21 264.76 279.14
  L 264.44 278.98
  Q 264.07 278.80 263.78 279.09
  L 261.84 281.03
  Q 261.63 281.24 261.93 281.25
  Q 262.09 281.25 262.26 281.24
  Q 263.46 281.13 262.25 281.58
  C 260.50 282.23 260.86 283.50 260.25 284.65
  Q 259.63 285.79 258.85 286.82
  Q 258.64 287.10 258.68 287.44
  L 258.79 288.19
  Q 258.85 288.66 258.50 288.98
  Q 256.50 290.83 253.76 290.11
  Q 253.34 290.00 253.18 290.40
  L 252.85 291.21
  A 0.34 0.33 64.9 0 1 252.22 290.98
  L 252.40 290.40
  A 0.39 0.39 0.0 0 0 251.92 289.91
  Q 250.45 290.35 249.55 289.51"
/>
<path stroke="#26a2c1" vector-effect="non-scaling-stroke" d="
  M 326.22 187.98
  Q 326.24 187.92 326.26 187.85"
/>
<path stroke="#85c7d3" vector-effect="non-scaling-stroke" d="
  M 326.26 187.85
  L 269.46 219.75"
/>
<path stroke="#ada0b2" vector-effect="non-scaling-stroke" d="
  M 161.09 252.38
  C 158.25 258.40 155.63 267.54 164.64 269.84
  A 1.17 1.16 83.6 0 1 165.39 270.44
  Q 166.08 271.82 166.02 273.26
  C 165.72 281.20 163.06 294.50 171.66 297.90
  Q 176.93 299.98 182.00 301.89
  A 1.25 1.24 11.8 0 1 182.81 303.12
  C 182.67 305.72 181.65 314.93 185.79 315.01
  A 1.68 1.67 -89.3 0 0 187.49 313.34
  C 187.52 308.17 189.43 299.36 183.43 297.04
  Q 177.82 294.88 172.05 292.51
  A 1.28 1.25 88.5 0 1 171.37 291.85
  Q 170.20 289.14 170.86 285.81"
/>
<path stroke="#d09f95" vector-effect="non-scaling-stroke" d="
  M 197.07 289.34
  C 201.09 297.04 204.14 299.88 203.15 309.22
  A 1.23 1.23 0.0 0 0 203.40 310.12
  Q 204.71 311.80 206.82 311.63
  A 0.67 0.66 -1.0 0 0 207.43 311.01
  C 207.80 304.40 207.39 297.95 209.74 291.51"
/>
<path stroke="#93bbd8" vector-effect="non-scaling-stroke" d="
  M 238.74 350.75
  Q 238.61 352.30 239.79 352.34
  Q 240.27 352.35 240.26 352.84
  Q 240.25 353.17 239.91 353.62"
/>
<path stroke="#3591be" vector-effect="non-scaling-stroke" d="
  M 248.87 353.51
  Q 249.11 351.43 247.02 350.36"
/>
<path stroke="#1994a4" vector-effect="non-scaling-stroke" d="
  M 289.05 310.52
  L 286.39 312.55
  Q 286.02 312.83 285.85 313.26
  C 283.07 320.54 291.46 319.64 294.09 315.65"
/>
<path stroke="#346586" vector-effect="non-scaling-stroke" d="
  M 169.24 173.30
  Q 164.76 173.02 161.27 170.08"
/>
<path stroke="#7cafd1" vector-effect="non-scaling-stroke" d="
  M 326.22 246.74
  L 326.23 268.75"
/>
<path stroke="#79b0c7" vector-effect="non-scaling-stroke" d="
  M 326.23 268.75
  Q 326.49 285.04 325.97 290.24
  Q 325.13 298.69 318.44 302.44
  Q 308.68 307.92 298.95 313.45
  Q 296.59 314.79 294.09 315.65"
/>
<path stroke="#7fc6c5" vector-effect="non-scaling-stroke" d="
  M 294.09 315.65
  Q 289.64 314.90 289.05 310.52"
/>
<path stroke="#79b0c7" vector-effect="non-scaling-stroke" d="
  M 289.05 310.52
  L 289.07 296.09
  A 2.13 2.12 -14.7 0 0 285.90 294.24
  Q 282.85 295.95 279.68 297.42
  C 272.51 300.75 274.51 287.76 274.51 284.80
  Q 274.52 280.54 274.46 276.19
  A 1.90 1.89 82.7 0 0 272.12 274.38
  L 268.79 275.20"
/>
<path stroke="#7fc6c5" vector-effect="non-scaling-stroke" d="
  M 268.79 275.20
  Q 268.84 249.11 269.30 223.41
  C 269.31 222.84 269.09 222.39 268.88 221.85"
/>
<path stroke="#d7dae1" vector-effect="non-scaling-stroke" d="
  M 237.74 301.99
  L 237.50 308.69
  Q 237.50 308.81 237.42 308.72
  L 237.24 308.52
  Q 237.04 308.29 237.06 308.60
  Q 237.09 309.15 237.00 309.73
  Q 236.88 310.49 236.53 309.80
  L 235.84 308.43
  Q 235.65 308.06 235.27 308.24
  Q 234.95 308.39 234.78 308.01
  Q 234.36 307.05 234.55 305.85
  Q 234.62 305.46 234.27 305.27
  Q 233.00 304.58 231.55 304.77
  Q 231.02 304.84 230.62 304.48
  Q 227.66 301.83 223.90 300.69
  Q 223.37 300.53 223.14 300.02
  C 222.04 297.58 218.98 297.15 216.63 296.44
  Q 216.20 296.32 215.95 295.95
  Q 214.11 293.30 209.74 291.51"
/>
<path stroke="#d9a79d" vector-effect="non-scaling-stroke" d="
  M 209.74 291.51
  C 213.24 281.68 216.56 272.67 215.49 264.99
  Q 215.13 262.38 211.40 259.05"
/>
<path stroke="#dfc199" vector-effect="non-scaling-stroke" d="
  M 211.40 259.05
  Q 214.86 255.84 214.12 252.43
  C 212.75 246.16 207.40 248.44 203.19 248.71
  A 0.29 0.29 0.0 0 1 203.04 248.16
  C 206.74 246.37 215.05 240.93 209.27 236.06
  C 204.25 231.83 199.78 240.66 198.33 243.98
  A 0.30 0.30 0.0 0 1 197.76 243.89
  C 197.33 239.31 199.45 231.75 192.69 229.62
  Q 192.27 229.48 191.84 229.62
  C 185.43 231.78 191.86 240.48 194.76 243.50
  Q 195.02 243.77 194.82 244.14
  Q 194.64 244.48 194.37 244.20
  C 192.70 242.49 185.68 238.65 184.96 243.42
  C 183.99 249.79 189.49 251.25 194.54 251.57
  Q 195.39 251.62 194.64 252.03
  C 192.38 253.27 188.35 254.06 188.59 257.41
  Q 188.88 261.40 192.78 262.33
  C 197.08 263.36 198.82 257.98 199.92 254.53
  A 0.34 0.34 0.0 0 1 200.57 254.53
  L 202.13 259.66"
/>
<path stroke="#d9a79d" vector-effect="non-scaling-stroke" d="
  M 202.13 259.66
  Q 202.48 263.53 206.07 265.46
  C 207.99 266.50 209.54 265.94 210.79 264.32
  A 0.21 0.21 0.0 0 1 211.16 264.46
  L 210.60 270.84
  Q 210.56 271.29 210.16 271.10
  Q 205.81 269.08 202.83 265.37
  A 0.96 0.96 0.0 0 0 201.14 265.81
  C 199.77 273.59 211.29 274.36 204.12 284.45
  A 1.40 1.38 -79.6 0 1 203.35 284.99
  Q 198.35 286.35 197.07 289.34"
/>
<path stroke="#d7dae1" vector-effect="non-scaling-stroke" d="
  M 197.07 289.34
  Q 195.90 291.77 194.07 292.56
  A 2.33 2.32 -41.3 0 1 192.00 292.43
  Q 187.73 289.97 184.60 286.07
  C 181.32 281.99 176.04 287.35 173.18 285.58
  A 0.44 0.44 0.0 0 0 172.51 285.93
  Q 172.49 286.30 172.48 286.68
  A 0.22 0.21 -47.3 0 1 172.05 286.70
  L 171.87 284.48
  Q 171.75 283.00 171.30 284.42
  L 170.86 285.81"
/>
<path stroke="#b5a9ba" vector-effect="non-scaling-stroke" d="
  M 170.86 285.81
  Q 170.67 278.46 170.74 271.25
  C 170.78 267.41 167.81 266.08 164.95 265.27
  A 2.21 2.21 0.0 0 1 163.39 262.66
  Q 164.46 257.82 167.24 253.69"
/>
<path stroke="#b9bccb" vector-effect="non-scaling-stroke" d="
  M 167.24 253.69
  Q 168.95 245.34 168.76 235.95
  C 168.70 232.79 169.93 230.94 172.42 229.36
  Q 177.99 225.81 186.19 221.26
  Q 186.89 220.87 186.12 220.64
  Q 166.54 214.86 162.91 231.69"
/>
<path stroke="#d7dae1" vector-effect="non-scaling-stroke" d="
  M 162.91 231.69
  L 163.03 241.63
  Q 163.03 241.69 162.97 241.69
  Q 162.86 241.69 162.72 241.70
  A 0.02 0.02 0.0 0 1 162.70 241.68
  Q 162.90 240.93 162.54 240.30
  Q 162.38 240.03 162.15 240.25
  Q 161.37 241.04 160.31 240.46
  A 0.68 0.66 34.2 0 0 159.47 240.61
  C 156.79 243.73 154.23 243.58 149.81 243.48
  Q 149.30 243.46 148.93 243.81
  Q 147.13 245.46 146.89 247.90
  Q 146.89 247.92 146.87 247.93
  Q 146.86 247.93 146.84 247.94
  Q 146.78 247.95 146.77 247.89
  L 146.56 245.75"
/>
<path stroke="#1e8abf" vector-effect="non-scaling-stroke" d="
  M 343.73 246.24
  Q 343.43 247.39 343.24 249.75
  Q 343.21 250.10 342.76 249.99
  Q 342.38 249.90 342.36 249.51
  L 341.86 237.76
  Q 341.86 237.70 341.85 237.71
  Q 341.80 237.79 341.76 237.87
  Q 341.68 238.02 341.44 237.81
  Q 341.34 237.72 341.25 237.62
  Q 341.18 237.54 341.09 237.59
  Q 335.91 240.21 333.01 245.20
  A 1.56 1.50 -86.7 0 1 332.35 245.81
  L 329.24 247.30
  Q 328.73 247.55 328.30 247.19
  Q 327.52 246.53 327.12 247.31
  Q 326.79 247.93 326.55 247.27
  Q 326.42 246.90 326.22 246.74"
/>
<path stroke="#81bdd6" vector-effect="non-scaling-stroke" d="
  M 326.22 246.74
  L 326.26 187.85"
/>
<path stroke="#167caf" vector-effect="non-scaling-stroke" d="
  M 343.72 269.49
  Q 341.46 268.73 340.35 266.22
  Q 340.12 265.70 339.63 265.97
  Q 337.48 267.17 334.92 269.90
  Q 333.84 271.05 332.65 270.09
  Q 332.25 269.77 331.78 269.99
  L 329.07 271.31
  Q 328.60 271.55 328.56 271.02
  Q 328.42 269.06 326.23 268.75"
/>
<path stroke="#8f829d" vector-effect="non-scaling-stroke" d="
  M 167.24 253.69
  Q 163.57 253.65 161.09 252.38"
/>
<path stroke="#b0b3c4" vector-effect="non-scaling-stroke" d="
  M 161.09 252.38
  C 164.13 246.30 163.51 239.06 162.91 231.69"
/>
<path stroke="#d9864e" vector-effect="non-scaling-stroke" d="
  M 211.40 259.05
  Q 210.39 256.64 208.45 255.51
  Q 204.64 253.30 202.13 259.66"
/>
<path stroke="#f2c1a8" vector-effect="non-scaling-stroke" d="
  M 321.94 116.18
  A 5.22 5.22 0.0 0 0 316.72 110.96
  A 5.22 5.22 0.0 0 0 311.50 116.18
  A 5.22 5.22 0.0 0 0 316.72 121.40
  A 5.22 5.22 0.0 0 0 321.94 116.18"
/>
<path stroke="#91cce2" vector-effect="non-scaling-stroke" d="
  M 337.77 125.90
  C 332.26 119.53 324.09 135.46 328.42 141.62
  C 331.28 145.68 338.35 144.82 340.91 140.67
  C 343.68 136.15 340.92 129.55 337.77 125.90"
/>
<path stroke="#f2c1a8" vector-effect="non-scaling-stroke" d="
  M 163.3485 137.1174
  A 5.39 5.11 96.3 0 0 169.0191 132.3207
  A 5.39 5.11 96.3 0 0 164.5315 126.4026
  A 5.39 5.11 96.3 0 0 158.8609 131.1993
  A 5.39 5.11 96.3 0 0 163.3485 137.1174"
/>
<path stroke="#8fd5d1" vector-effect="non-scaling-stroke" d="
  M 309.39 144.92
  C 310.92 143.71 311.05 142.00 310.41 140.29
  Q 307.12 131.47 297.85 129.10
  C 295.41 128.48 286.04 127.28 284.13 130.58
  Q 283.84 131.10 284.22 131.55
  C 288.64 136.66 303.38 149.69 309.39 144.92"
/>
<path stroke="#91cce2" vector-effect="non-scaling-stroke" d="
  M 190.14 138.20
  C 183.22 136.96 166.56 150.64 174.72 155.43
  Q 175.16 155.69 175.65 155.59
  C 182.39 154.21 188.95 146.53 191.49 140.73
  A 1.83 1.83 0.0 0 0 190.14 138.20"
/>
<path stroke="#808080" vector-effect="non-scaling-stroke" d="
  M 354.71 353.78
  A 0.30 0.30 0.0 0 1 355.06 353.46
  L 361.82 354.61
  A 0.30 0.30 0.0 0 0 362.07 354.53
  L 367.81 349.34
  A 0.30 0.30 0.0 0 0 367.65 348.82
  L 354.83 346.90
  A 0.30 0.30 0.0 0 1 354.58 346.63
  L 353.61 335.26
  A 0.30 0.30 0.0 0 0 353.11 335.06
  L 347.57 340.12
  A 0.30 0.30 0.0 0 0 347.47 340.37
  L 347.98 345.70
  A 0.30 0.30 0.0 0 1 347.62 346.02
  L 342.37 344.96
  A 0.30 0.30 0.0 0 0 342.11 345.04
  L 336.66 350.12
  A 0.30 0.30 0.0 0 0 336.81 350.64
  L 348.01 352.63
  A 0.30 0.30 0.0 0 1 348.25 352.91
  L 348.99 365.87
  A 0.30 0.30 0.0 0 0 349.50 366.07
  L 355.20 360.76
  A 0.30 0.30 0.0 0 0 355.30 360.51
  L 354.71 353.78"
/>
<path stroke="#808080" vector-effect="non-scaling-stroke" d="
  M 153.49 351.05
  L 138.83 379.81
  A 0.30 0.30 0.0 0 0 138.96 380.21
  L 147.20 384.41
  A 16.54 16.14 27.0 0 0 169.26 377.54
  L 169.53 377.00
  A 16.54 16.14 27.0 0 0 162.13 355.11
  L 153.89 350.92
  A 0.30 0.30 0.0 0 0 153.49 351.05"
/>
<path stroke="#c9cad7" vector-effect="non-scaling-stroke" d="
  M 322.05 370.92
  Q 321.48 371.14 321.50 370.87"
/>
<path stroke="#808080" vector-effect="non-scaling-stroke" d="
  M 321.50 370.87
  Q 318.69 367.67 313.80 368.64
  Q 313.30 368.74 313.49 368.26
  Q 316.01 361.93 311.29 357.76
  C 306.38 353.41 296.98 359.08 292.07 361.99
  Q 291.62 362.26 291.85 362.72
  L 305.89 391.12
  Q 306.11 391.56 306.56 391.36
  C 315.00 387.49 327.16 383.60 323.02 373.33"
/>
<path stroke="#c9cad7" vector-effect="non-scaling-stroke" d="
  M 323.02 373.33
  L 323.33 372.98"
/>
<path stroke="#808080" vector-effect="non-scaling-stroke" d="
  M 323.33 372.98
  C 329.09 379.53 338.51 376.79 342.86 370.35
  C 348.63 361.82 340.81 351.72 331.08 354.36
  C 324.41 356.17 318.47 363.72 322.05 370.92"
/>
<path stroke="#494b57" vector-effect="non-scaling-stroke" d="
  M 323.33 372.98
  L 322.05 370.92"
/>
<path stroke="#494b57" vector-effect="non-scaling-stroke" d="
  M 321.50 370.87
  L 323.02 373.33"
/>
<path stroke="#808080" vector-effect="non-scaling-stroke" d="
  M 182.46 367.15
  Q 180.33 375.45 178.18 383.78
  C 175.99 392.29 177.69 398.26 187.04 400.44
  Q 199.53 403.35 202.65 391.58
  Q 205.24 381.84 207.73 371.82
  A 0.52 0.51 14.2 0 0 207.35 371.20
  L 201.15 369.63
  Q 200.69 369.51 200.57 369.97
  C 198.96 376.44 196.96 382.85 195.45 389.31
  C 193.77 396.50 183.21 394.58 185.31 386.00
  Q 187.61 376.64 190.16 367.27
  Q 190.31 366.74 189.78 366.60
  Q 187.91 366.12 186.06 365.62
  C 182.92 364.77 180.16 362.74 176.80 361.87
  Q 176.26 361.74 176.07 362.25
  L 164.78 391.73
  Q 164.54 392.34 165.15 392.57
  L 170.98 394.81
  Q 171.51 395.01 171.72 394.48
  L 182.17 367.06
  A 0.15 0.15 0.0 0 1 182.46 367.15"
/>
<path stroke="#808080" vector-effect="non-scaling-stroke" d="
  M 279.15 399.06
  L 279.31 399.88
  A 0.67 0.67 0.0 0 0 280.12 400.39
  L 285.72 399.01
  Q 286.24 398.88 286.12 398.35
  L 278.73 366.11
  Q 278.58 365.45 277.92 365.60
  L 272.37 366.85
  Q 271.69 367.01 271.85 367.68
  L 275.07 381.73
  A 0.34 0.34 0.0 0 1 274.59 382.11
  C 268.55 379.13 261.65 383.37 260.63 389.43
  C 258.85 400.02 271.21 408.23 278.35 398.87
  A 0.45 0.45 0.0 0 1 279.15 399.06"
/>
<path stroke="#808080" vector-effect="non-scaling-stroke" d="
  M 257.49 375.74
  A 4.10 4.10 0.0 0 0 253.39 371.64
  A 4.10 4.10 0.0 0 0 249.29 375.74
  A 4.10 4.10 0.0 0 0 253.39 379.84
  A 4.10 4.10 0.0 0 0 257.49 375.74"
/>
<path stroke="#808080" vector-effect="non-scaling-stroke" d="
  M 229.45 399.75
  A 0.37 0.37 0.0 0 1 229.80 399.50
  L 241.95 399.49
  A 0.37 0.37 0.0 0 1 242.29 399.73
  L 244.60 405.77
  A 0.37 0.37 0.0 0 0 244.95 406.01
  L 252.18 405.99
  A 0.37 0.37 0.0 0 0 252.52 405.48
  L 239.08 373.18
  A 0.37 0.37 0.0 0 0 238.72 372.95
  L 232.34 373.17
  A 0.37 0.37 0.0 0 0 232.01 373.41
  L 219.37 405.75
  A 0.37 0.37 0.0 0 0 219.71 406.25
  L 226.92 406.25
  A 0.37 0.37 0.0 0 0 227.27 406.00
  L 229.45 399.75"
/>
<path stroke="#808080" vector-effect="non-scaling-stroke" d="
  M 297.6065 379.7130
  A 0.42 0.42 0.0 0 0 297.0695 379.4592
  L 285.7342 383.5178
  A 0.42 0.42 0.0 0 0 285.4804 384.0548
  L 287.2535 389.0070
  A 0.42 0.42 0.0 0 0 287.7905 389.2608
  L 299.1258 385.2022
  A 0.42 0.42 0.0 0 0 299.3796 384.6652
  L 297.6065 379.7130"
/>
<path stroke="#808080" vector-effect="non-scaling-stroke" d="
  M 257.8794 384.0621
  A 0.34 0.34 0.0 0 0 257.5000 383.7667
  L 251.2086 384.5503
  A 0.34 0.34 0.0 0 0 250.9133 384.9298
  L 253.3606 404.5779
  A 0.34 0.34 0.0 0 0 253.7400 404.8733
  L 260.0314 404.0897
  A 0.34 0.34 0.0 0 0 260.3267 403.7102
  L 257.8794 384.0621"
/>
<path stroke="#7fc6c5" vector-effect="non-scaling-stroke" d="
  M 309.42 223.90
  Q 307.06 225.13 305.78 223.85"
/>
<path stroke="#78848e" vector-effect="non-scaling-stroke" d="
  M 305.78 223.85
  C 306.72 212.05 289.70 219.94 302.85 229.93"
/>
<path stroke="#7fc6c5" vector-effect="non-scaling-stroke" d="
  M 302.85 229.93
  Q 303.49 230.35 303.07 231.62"
/>
<path stroke="#7cafd1" vector-effect="non-scaling-stroke" d="
  M 303.07 231.62
  C 297.44 230.82 290.75 234.10 293.42 240.28
  C 295.23 244.44 302.05 241.01 305.21 239.61"
/>
<path stroke="#85c7d3" vector-effect="non-scaling-stroke" d="
  M 305.21 239.61
  C 301.72 242.36 292.01 249.03 296.68 253.10
  C 299.16 255.27 304.12 250.35 305.50 248.54
  A 0.83 0.82 -69.2 0 1 306.21 248.22
  Q 306.80 248.25 306.80 248.79"
/>
<path stroke="#7ba2c6" vector-effect="non-scaling-stroke" d="
  M 306.80 248.79
  C 305.33 252.90 306.92 254.67 309.94 257.06
  A 1.34 1.32 12.5 0 1 310.40 257.77
  C 311.99 264.21 307.17 270.49 301.84 273.65
  A 2.41 2.41 0.0 0 0 300.94 276.83
  C 304.31 283.26 308.38 284.48 306.50 292.96
  A 1.17 1.17 0.0 0 0 308.11 294.29
  L 310.90 293.07
  A 0.95 0.92 -13.3 0 0 311.46 292.19
  Q 311.18 280.60 312.21 277.49
  C 314.14 271.61 325.02 243.12 319.99 239.15"
/>
<path stroke="#85c7d3" vector-effect="non-scaling-stroke" d="
  M 319.99 239.15
  C 318.03 236.41 313.26 239.14 310.98 240.55
  A 0.10 0.10 0.0 0 1 310.83 240.50
  Q 310.79 240.38 310.75 240.25
  Q 310.70 240.09 310.84 239.99
  C 314.77 237.40 323.35 232.37 320.82 226.36
  A 1.20 1.20 0.0 0 0 320.18 225.72
  C 317.80 224.70 314.38 227.50 312.18 229.15"
/>
<path stroke="#7fc6c5" vector-effect="non-scaling-stroke" d="
  M 312.18 229.15
  L 311.85 228.26"
/>
<path stroke="#78848e" vector-effect="non-scaling-stroke" d="
  M 311.85 228.26
  C 315.19 224.30 319.75 219.23 317.70 215.44
  Q 317.48 215.04 317.04 214.91
  C 312.06 213.52 309.65 219.76 309.42 223.90"
/>
<path stroke="#18686b" vector-effect="non-scaling-stroke" d="
  M 311.85 228.26
  L 309.42 223.90"
/>
<path stroke="#25abb0" vector-effect="non-scaling-stroke" d="
  M 312.18 229.15
  L 310.66 232.37
  A 0.61 0.61 0.0 0 1 309.88 232.67
  L 306.50 231.24
  A 0.26 0.26 0.0 0 0 306.14 231.48
  Q 306.18 233.92 305.23 233.72"
/>
<path stroke="#1c93ae" vector-effect="non-scaling-stroke" d="
  M 305.23 233.72
  Q 305.24 231.95 303.07 231.62"
/>
<path stroke="#18686b" vector-effect="non-scaling-stroke" d="
  M 305.78 223.85
  C 305.26 226.00 302.91 225.77 302.85 229.93"
/>
<path stroke="#2186b1" vector-effect="non-scaling-stroke" d="
  M 319.99 239.15
  L 316.97 244.79"
/>
<path stroke="#85c7d3" vector-effect="non-scaling-stroke" d="
  M 316.97 244.79
  L 309.35 247.24"
/>
<path stroke="#2186b1" vector-effect="non-scaling-stroke" d="
  M 309.35 247.24
  Q 308.06 246.73 306.80 248.79"
/>
<path stroke="#2293bb" vector-effect="non-scaling-stroke" d="
  M 305.21 239.61
  Q 306.19 238.40 305.23 233.72"
/>
<path stroke="#7ba2c6" vector-effect="non-scaling-stroke" d="
  M 309.35 247.24
  Q 310.60 252.19 314.50 252.99
  Q 315.09 253.11 315.22 252.53
  L 316.97 244.79"
/>
<path stroke="#85c7d3" vector-effect="non-scaling-stroke" d="
  M 303.3441 266.2487
  A 3.72 2.63 130.5 0 0 307.7599 265.1280
  A 3.72 2.63 130.5 0 0 308.1759 260.5913
  A 3.72 2.63 130.5 0 0 303.7601 261.7120
  A 3.72 2.63 130.5 0 0 303.3441 266.2487"
/>
<path stroke="#85d0c8" vector-effect="non-scaling-stroke" d="
  M 204.5010 277.6553
  A 2.98 2.81 -8.0 0 0 201.1589 275.2873
  A 2.98 2.81 -8.0 0 0 198.5990 278.4847
  A 2.98 2.81 -8.0 0 0 201.9411 280.8527
  A 2.98 2.81 -8.0 0 0 204.5010 277.6553"
/>
<path stroke="#808080" vector-effect="non-scaling-stroke" d="
  M 157.19 360.46
  L 148.55 377.27
  A 0.35 0.35 0.0 0 0 148.70 377.74
  L 149.18 377.99
  A 9.71 9.59 -62.8 0 0 162.15 373.74
  L 162.23 373.58
  A 9.71 9.59 -62.8 0 0 158.14 360.56
  L 157.66 360.31
  A 0.35 0.35 0.0 0 0 157.19 360.46"
/>
<path stroke="#808080" vector-effect="non-scaling-stroke" d="
  M 337.61 365.32
  A 4.77 4.77 0.0 0 0 332.84 360.55
  A 4.77 4.77 0.0 0 0 328.07 365.32
  A 4.77 4.77 0.0 0 0 332.84 370.09
  A 4.77 4.77 0.0 0 0 337.61 365.32"
/>
<path stroke="#808080" vector-effect="non-scaling-stroke" d="
  M 301.01 364.24
  L 303.85 370.06
  A 0.32 0.32 0.0 0 0 304.28 370.21
  L 305.11 369.80
  A 4.27 3.28 -26.0 0 0 307.51 364.98
  L 307.27 364.48
  A 4.27 3.28 -26.0 0 0 301.99 363.40
  L 301.16 363.81
  A 0.32 0.32 0.0 0 0 301.01 364.24"
/>
<path stroke="#808080" vector-effect="non-scaling-stroke" d="
  M 307.09 376.69
  L 310.01 382.69
  A 0.59 0.59 0.0 0 0 310.80 382.97
  L 312.85 381.97
  A 5.03 3.67 -26.0 0 0 315.76 376.46
  L 315.54 375.99
  A 5.03 3.67 -26.0 0 0 309.41 374.90
  L 307.36 375.90
  A 0.59 0.59 0.0 0 0 307.09 376.69"
/>
<path stroke="#808080" vector-effect="non-scaling-stroke" d="
  M 277.36 391.55
  A 4.77 4.77 0.0 0 0 272.59 386.78
  A 4.77 4.77 0.0 0 0 267.82 391.55
  A 4.77 4.77 0.0 0 0 272.59 396.32
  A 4.77 4.77 0.0 0 0 277.36 391.55"
/>
<path stroke="#808080" vector-effect="non-scaling-stroke" d="
  M 232.36 392.34
  A 0.34 0.34 0.0 0 0 232.69 392.80
  L 238.90 392.71
  A 0.34 0.34 0.0 0 0 239.21 392.24
  L 235.99 384.21
  A 0.34 0.34 0.0 0 0 235.36 384.21
  L 232.36 392.34"
/>
</g>
<path fill="#ffffff" d="
  M 0.00 0.00
  L 500.00 0.00
  L 500.00 500.00
  L 0.00 500.00
  L 0.00 0.00
  Z
  M 280.07 86.45
  Q 272.39 92.82 266.80 100.65
  C 258.23 108.72 250.22 121.90 248.91 133.97
  Q 248.50 137.79 252.79 137.69
  Q 253.22 137.68 253.58 137.43
  Q 258.45 133.95 261.55 128.80
  Q 261.78 128.42 262.48 128.45
  Q 263.66 128.62 264.19 128.44
  C 278.72 123.62 288.71 119.14 298.52 108.85
  Q 308.68 97.95 311.50 83.59
  C 312.58 78.07 310.64 71.52 303.48 73.50
  Q 290.21 77.18 280.07 86.45
  Z
  M 252.06 92.03
  C 243.95 68.27 231.24 98.30 237.70 109.00
  C 241.43 115.17 248.31 114.15 251.48 108.23
  C 254.18 103.20 253.87 97.33 252.06 92.03
  Z
  M 186.22 108.94
  C 193.87 129.45 210.62 137.99 231.47 138.39
  Q 232.66 140.96 234.31 143.60
  C 237.66 148.96 239.33 153.86 239.95 160.30
  Q 240.83 165.99 239.46 170.91
  L 189.79 199.26
  L 186.02 197.51
  L 181.98 195.77
  Q 181.63 195.31 180.55 195.03
  L 177.20 193.41
  L 155.22 183.30
  Q 153.58 182.55 155.14 181.63
  L 169.24 173.30
  L 217.14 145.30
  Q 217.62 145.02 217.18 144.67
  C 213.50 141.70 210.48 141.62 206.22 144.07
  Q 183.90 156.88 161.27 170.08
  C 150.25 176.41 137.53 180.90 137.53 196.26
  Q 137.54 209.00 137.43 221.74
  Q 136.68 241.38 137.58 261.01
  C 137.28 287.25 133.39 314.78 159.43 327.33
  Q 192.19 343.12 224.92 358.99
  C 241.28 366.93 251.77 364.33 267.07 355.82
  Q 295.86 339.82 324.65 323.72
  C 342.49 313.74 351.81 303.24 351.91 281.06
  Q 352.10 234.19 351.96 187.31
  Q 351.95 182.08 347.70 176.24
  Q 344.45 172.36 339.38 171.27
  L 335.83 169.53
  L 284.33 144.97
  C 281.96 147.40 279.24 148.12 276.95 149.39
  Q 263.27 157.01 249.57 164.96
  L 249.49 159.22
  Q 249.46 158.90 249.59 158.74
  Q 250.06 158.81 250.23 158.71
  Q 264.27 150.54 278.29 142.31
  C 282.75 139.70 277.34 135.12 273.06 137.56
  Q 260.97 144.46 248.72 151.61
  C 247.12 146.82 245.67 141.60 243.63 137.36
  Q 237.19 123.91 225.86 113.76
  Q 217.00 102.17 203.88 96.54
  C 192.47 91.64 180.64 92.93 186.22 108.94
  Z
  M 321.94 116.18
  A 5.22 5.22 0.0 0 0 316.72 110.96
  A 5.22 5.22 0.0 0 0 311.50 116.18
  A 5.22 5.22 0.0 0 0 316.72 121.40
  A 5.22 5.22 0.0 0 0 321.94 116.18
  Z
  M 337.77 125.90
  C 332.26 119.53 324.09 135.46 328.42 141.62
  C 331.28 145.68 338.35 144.82 340.91 140.67
  C 343.68 136.15 340.92 129.55 337.77 125.90
  Z
  M 163.3485 137.1174
  A 5.39 5.11 96.3 0 0 169.0191 132.3207
  A 5.39 5.11 96.3 0 0 164.5315 126.4026
  A 5.39 5.11 96.3 0 0 158.8609 131.1993
  A 5.39 5.11 96.3 0 0 163.3485 137.1174
  Z
  M 309.39 144.92
  C 310.92 143.71 311.05 142.00 310.41 140.29
  Q 307.12 131.47 297.85 129.10
  C 295.41 128.48 286.04 127.28 284.13 130.58
  Q 283.84 131.10 284.22 131.55
  C 288.64 136.66 303.38 149.69 309.39 144.92
  Z
  M 190.14 138.20
  C 183.22 136.96 166.56 150.64 174.72 155.43
  Q 175.16 155.69 175.65 155.59
  C 182.39 154.21 188.95 146.53 191.49 140.73
  A 1.83 1.83 0.0 0 0 190.14 138.20
  Z
  M 354.71 353.78
  A 0.30 0.30 0.0 0 1 355.06 353.46
  L 361.82 354.61
  A 0.30 0.30 0.0 0 0 362.07 354.53
  L 367.81 349.34
  A 0.30 0.30 0.0 0 0 367.65 348.82
  L 354.83 346.90
  A 0.30 0.30 0.0 0 1 354.58 346.63
  L 353.61 335.26
  A 0.30 0.30 0.0 0 0 353.11 335.06
  L 347.57 340.12
  A 0.30 0.30 0.0 0 0 347.47 340.37
  L 347.98 345.70
  A 0.30 0.30 0.0 0 1 347.62 346.02
  L 342.37 344.96
  A 0.30 0.30 0.0 0 0 342.11 345.04
  L 336.66 350.12
  A 0.30 0.30 0.0 0 0 336.81 350.64
  L 348.01 352.63
  A 0.30 0.30 0.0 0 1 348.25 352.91
  L 348.99 365.87
  A 0.30 0.30 0.0 0 0 349.50 366.07
  L 355.20 360.76
  A 0.30 0.30 0.0 0 0 355.30 360.51
  L 354.71 353.78
  Z
  M 153.49 351.05
  L 138.83 379.81
  A 0.30 0.30 0.0 0 0 138.96 380.21
  L 147.20 384.41
  A 16.54 16.14 27.0 0 0 169.26 377.54
  L 169.53 377.00
  A 16.54 16.14 27.0 0 0 162.13 355.11
  L 153.89 350.92
  A 0.30 0.30 0.0 0 0 153.49 351.05
  Z
  M 322.05 370.92
  Q 321.48 371.14 321.50 370.87
  Q 318.69 367.67 313.80 368.64
  Q 313.30 368.74 313.49 368.26
  Q 316.01 361.93 311.29 357.76
  C 306.38 353.41 296.98 359.08 292.07 361.99
  Q 291.62 362.26 291.85 362.72
  L 305.89 391.12
  Q 306.11 391.56 306.56 391.36
  C 315.00 387.49 327.16 383.60 323.02 373.33
  L 323.33 372.98
  C 329.09 379.53 338.51 376.79 342.86 370.35
  C 348.63 361.82 340.81 351.72 331.08 354.36
  C 324.41 356.17 318.47 363.72 322.05 370.92
  Z
  M 182.46 367.15
  Q 180.33 375.45 178.18 383.78
  C 175.99 392.29 177.69 398.26 187.04 400.44
  Q 199.53 403.35 202.65 391.58
  Q 205.24 381.84 207.73 371.82
  A 0.52 0.51 14.2 0 0 207.35 371.20
  L 201.15 369.63
  Q 200.69 369.51 200.57 369.97
  C 198.96 376.44 196.96 382.85 195.45 389.31
  C 193.77 396.50 183.21 394.58 185.31 386.00
  Q 187.61 376.64 190.16 367.27
  Q 190.31 366.74 189.78 366.60
  Q 187.91 366.12 186.06 365.62
  C 182.92 364.77 180.16 362.74 176.80 361.87
  Q 176.26 361.74 176.07 362.25
  L 164.78 391.73
  Q 164.54 392.34 165.15 392.57
  L 170.98 394.81
  Q 171.51 395.01 171.72 394.48
  L 182.17 367.06
  A 0.15 0.15 0.0 0 1 182.46 367.15
  Z
  M 279.15 399.06
  L 279.31 399.88
  A 0.67 0.67 0.0 0 0 280.12 400.39
  L 285.72 399.01
  Q 286.24 398.88 286.12 398.35
  L 278.73 366.11
  Q 278.58 365.45 277.92 365.60
  L 272.37 366.85
  Q 271.69 367.01 271.85 367.68
  L 275.07 381.73
  A 0.34 0.34 0.0 0 1 274.59 382.11
  C 268.55 379.13 261.65 383.37 260.63 389.43
  C 258.85 400.02 271.21 408.23 278.35 398.87
  A 0.45 0.45 0.0 0 1 279.15 399.06
  Z
  M 257.49 375.74
  A 4.10 4.10 0.0 0 0 253.39 371.64
  A 4.10 4.10 0.0 0 0 249.29 375.74
  A 4.10 4.10 0.0 0 0 253.39 379.84
  A 4.10 4.10 0.0 0 0 257.49 375.74
  Z
  M 229.45 399.75
  A 0.37 0.37 0.0 0 1 229.80 399.50
  L 241.95 399.49
  A 0.37 0.37 0.0 0 1 242.29 399.73
  L 244.60 405.77
  A 0.37 0.37 0.0 0 0 244.95 406.01
  L 252.18 405.99
  A 0.37 0.37 0.0 0 0 252.52 405.48
  L 239.08 373.18
  A 0.37 0.37 0.0 0 0 238.72 372.95
  L 232.34 373.17
  A 0.37 0.37 0.0 0 0 232.01 373.41
  L 219.37 405.75
  A 0.37 0.37 0.0 0 0 219.71 406.25
  L 226.92 406.25
  A 0.37 0.37 0.0 0 0 227.27 406.00
  L 229.45 399.75
  Z
  M 297.6065 379.7130
  A 0.42 0.42 0.0 0 0 297.0695 379.4592
  L 285.7342 383.5178
  A 0.42 0.42 0.0 0 0 285.4804 384.0548
  L 287.2535 389.0070
  A 0.42 0.42 0.0 0 0 287.7905 389.2608
  L 299.1258 385.2022
  A 0.42 0.42 0.0 0 0 299.3796 384.6652
  L 297.6065 379.7130
  Z
  M 257.8794 384.0621
  A 0.34 0.34 0.0 0 0 257.5000 383.7667
  L 251.2086 384.5503
  A 0.34 0.34 0.0 0 0 250.9133 384.9298
  L 253.3606 404.5779
  A 0.34 0.34 0.0 0 0 253.7400 404.8733
  L 260.0314 404.0897
  A 0.34 0.34 0.0 0 0 260.3267 403.7102
  L 257.8794 384.0621
  Z"
/>
<path fill="#2abda7" d="
  M 298.52 108.85
  L 298.29 104.64
  Q 298.27 104.13 298.58 103.72
  Q 300.73 100.91 298.29 98.46
  Q 298.03 98.19 298.20 97.86
  Q 298.36 97.58 298.13 97.37
  Q 296.76 96.06 296.70 94.31
  Q 296.69 93.91 296.30 93.86
  C 292.36 93.34 290.84 90.11 287.38 89.18
  A 1.66 1.65 -11.9 0 1 286.55 88.64
  Q 285.78 87.70 284.52 88.27
  Q 279.61 90.52 280.07 86.45
  Q 290.21 77.18 303.48 73.50
  C 310.64 71.52 312.58 78.07 311.50 83.59
  Q 308.68 97.95 298.52 108.85
  Z"
/>
<path fill="#1faaa2" d="
  M 237.70 109.00
  C 231.24 98.30 243.95 68.27 252.06 92.03
  C 253.87 97.33 254.18 103.20 251.48 108.23
  C 248.31 114.15 241.43 115.17 237.70 109.00
  Z"
/>
<path fill="#1faaa2" d="
  M 280.07 86.45
  Q 279.61 90.52 284.52 88.27
  Q 285.78 87.70 286.55 88.64
  A 1.66 1.65 -11.9 0 0 287.38 89.18
  C 290.84 90.11 292.36 93.34 296.30 93.86
  Q 296.69 93.91 296.70 94.31
  Q 296.76 96.06 298.13 97.37
  Q 298.36 97.58 298.20 97.86
  Q 298.03 98.19 298.29 98.46
  Q 300.73 100.91 298.58 103.72
  Q 298.27 104.13 298.29 104.64
  L 298.52 108.85
  C 288.71 119.14 278.72 123.62 264.19 128.44
  Q 263.66 128.62 262.48 128.45
  C 258.78 120.06 262.69 108.52 266.80 100.65
  Q 272.39 92.82 280.07 86.45
  Z"
/>
<path fill="#dfa04a" d="
  M 225.86 113.76
  Q 229.38 119.02 231.03 124.42
  Q 224.01 122.84 217.17 120.26
  C 214.67 119.32 213.35 117.29 209.81 117.04
  C 205.24 116.72 198.02 112.63 193.95 110.34
  Q 191.69 109.06 186.22 108.94
  C 180.64 92.93 192.47 91.64 203.88 96.54
  Q 217.00 102.17 225.86 113.76
  Z"
/>
<path fill="#dfa04a" d="
  M 266.80 100.65
  C 262.69 108.52 258.78 120.06 262.48 128.45
  Q 261.78 128.42 261.55 128.80
  Q 258.45 133.95 253.58 137.43
  Q 253.22 137.68 252.79 137.69
  Q 248.50 137.79 248.91 133.97
  C 250.22 121.90 258.23 108.72 266.80 100.65
  Z"
/>
<path fill="#e48251" d="
  M 231.03 124.42
  Q 234.28 132.72 231.47 138.39
  C 210.62 137.99 193.87 129.45 186.22 108.94
  Q 191.69 109.06 193.95 110.34
  C 198.02 112.63 205.24 116.72 209.81 117.04
  C 213.35 117.29 214.67 119.32 217.17 120.26
  Q 224.01 122.84 231.03 124.42
  Z"
/>
<circle fill="#e48251" cx="316.72" cy="116.18" r="5.22"/>
<path fill="#1e8b9d" d="
  M 225.86 113.76
  Q 237.19 123.91 243.63 137.36
  C 245.67 141.60 247.12 146.82 248.72 151.61
  L 249.59 158.74
  Q 249.46 158.90 249.49 159.22
  Q 247.56 159.51 246.01 158.56
  Q 245.53 158.27 245.01 158.46
  L 239.95 160.30
  C 239.33 153.86 237.66 148.96 234.31 143.60
  Q 232.66 140.96 231.47 138.39
  Q 234.28 132.72 231.03 124.42
  Q 229.38 119.02 225.86 113.76
  Z"
/>
<path fill="#2298c4" d="
  M 328.42 141.62
  C 324.09 135.46 332.26 119.53 337.77 125.90
  C 340.92 129.55 343.68 136.15 340.91 140.67
  C 338.35 144.82 331.28 145.68 328.42 141.62
  Z"
/>
<ellipse fill="#e48251" cx="0.00" cy="0.00" transform="translate(163.94,131.76) rotate(96.3)" rx="5.39" ry="5.11"/>
<path fill="#1faaa2" d="
  M 309.39 144.92
  C 303.38 149.69 288.64 136.66 284.22 131.55
  Q 283.84 131.10 284.13 130.58
  C 286.04 127.28 295.41 128.48 297.85 129.10
  Q 307.12 131.47 310.41 140.29
  C 311.05 142.00 310.92 143.71 309.39 144.92
  Z"
/>
<path fill="#57a4d7" d="
  M 249.59 158.74
  L 248.72 151.61
  Q 260.97 144.46 273.06 137.56
  C 277.34 135.12 282.75 139.70 278.29 142.31
  Q 264.27 150.54 250.23 158.71
  Q 250.06 158.81 249.59 158.74
  Z"
/>
<path fill="#2298c4" d="
  M 190.14 138.20
  A 1.83 1.83 0.0 0 1 191.49 140.73
  C 188.95 146.53 182.39 154.21 175.65 155.59
  Q 175.16 155.69 174.72 155.43
  C 166.56 150.64 183.22 136.96 190.14 138.20
  Z"
/>
<path fill="#57a4d7" d="
  M 169.24 173.30
  Q 164.76 173.02 161.27 170.08
  Q 183.90 156.88 206.22 144.07
  C 210.48 141.62 213.50 141.70 217.18 144.67
  Q 217.62 145.02 217.14 145.30
  L 169.24 173.30
  Z"
/>
<path fill="#57a4d7" d="
  M 335.83 169.53
  L 329.53 173.80
  L 289.94 155.08
  L 290.63 154.49
  Q 291.08 154.10 290.54 153.85
  L 282.37 149.91
  L 284.33 144.97
  L 335.83 169.53
  Z"
/>
<path fill="#9295ae" d="
  M 284.33 144.97
  L 282.37 149.91
  L 249.94 168.25
  A 0.36 0.36 0.0 0 1 249.41 167.84
  Q 249.90 166.10 249.57 164.96
  Q 263.27 157.01 276.95 149.39
  C 279.24 148.12 281.96 147.40 284.33 144.97
  Z"
/>
<path fill="#112634" d="
  M 282.37 149.91
  L 290.54 153.85
  Q 291.08 154.10 290.63 154.49
  L 289.94 155.08
  L 204.82 204.47
  A 1.08 1.08 0.0 0 0 204.33 205.75
  Q 204.37 205.86 204.71 206.04
  Q 205.19 207.61 208.01 207.47
  L 215.68 211.09
  Q 221.80 215.25 228.62 217.12
  Q 230.08 217.25 231.42 218.37
  Q 237.58 221.66 245.29 220.28
  L 248.97 220.24
  L 252.86 219.67
  A 0.08 0.08 0.0 0 0 252.85 219.51
  L 250.85 219.55
  Q 259.79 216.88 267.83 211.48
  Q 270.19 215.15 269.46 219.75
  Q 269.39 220.92 268.88 221.85
  C 262.37 225.25 256.98 228.53 249.80 230.43
  Q 249.27 230.57 249.27 231.12
  L 249.55 289.51
  L 249.18 349.06
  Q 249.18 349.57 248.76 349.86
  Q 248.02 350.36 247.02 350.36
  L 238.74 350.75
  Q 237.83 350.32 237.81 349.19
  Q 237.70 338.37 237.74 301.99
  L 237.74 231.05
  Q 237.74 230.53 237.23 230.48
  C 228.49 229.60 220.64 224.72 212.92 221.17
  Q 180.60 206.33 149.14 191.27
  A 1.83 1.83 0.0 0 0 146.52 192.92
  L 146.56 245.75
  Q 146.22 267.19 146.42 288.60
  C 146.53 300.27 150.23 311.58 161.31 316.95
  C 182.45 327.20 203.83 337.21 224.68 348.03
  C 230.69 351.14 234.56 352.85 239.91 353.62
  L 248.87 353.51
  Q 254.64 352.45 261.09 348.86
  Q 291.01 332.21 320.94 315.54
  Q 332.07 309.34 335.60 305.59
  C 344.97 295.61 343.95 282.38 343.72 269.49
  L 343.73 246.24
  Q 343.78 217.14 343.73 188.05
  C 343.72 181.63 340.44 179.80 334.83 183.14
  Q 330.61 185.66 326.22 187.98
  L 326.22 177.98
  L 330.31 175.49
  A 0.65 0.63 81.3 0 0 330.60 175.08
  Q 330.82 174.23 329.53 173.80
  L 335.83 169.53
  L 339.38 171.27
  L 347.70 176.24
  Q 351.95 182.08 351.96 187.31
  Q 352.10 234.19 351.91 281.06
  C 351.81 303.24 342.49 313.74 324.65 323.72
  Q 295.86 339.82 267.07 355.82
  C 251.77 364.33 241.28 366.93 224.92 358.99
  Q 192.19 343.12 159.43 327.33
  C 133.39 314.78 137.28 287.25 137.58 261.01
  Q 138.58 241.37 137.43 221.74
  Q 137.54 209.00 137.53 196.26
  C 137.53 180.90 150.25 176.41 161.27 170.08
  Q 164.76 173.02 169.24 173.30
  L 155.14 181.63
  Q 153.58 182.55 155.22 183.30
  L 177.20 193.41
  Q 178.59 195.24 180.55 195.03
  Q 181.63 195.31 181.98 195.77
  Q 182.67 197.29 186.02 197.51
  L 189.79 199.26
  L 192.82 200.51
  Q 193.34 200.72 193.82 200.44
  L 238.48 174.86
  Q 238.89 174.62 238.96 174.15
  L 239.46 170.91
  Q 240.83 165.99 239.95 160.30
  L 245.01 158.46
  Q 245.53 158.27 246.01 158.56
  Q 247.56 159.51 249.49 159.22
  L 249.57 164.96
  Q 249.90 166.10 249.41 167.84
  A 0.36 0.36 0.0 0 0 249.94 168.25
  L 282.37 149.91
  Z"
/>
<path fill="#ffffff" d="
  M 289.94 155.08
  L 329.53 173.80
  Q 330.82 174.23 330.60 175.08
  A 0.65 0.63 81.3 0 1 330.31 175.49
  L 326.22 177.98
  L 267.83 211.48
  Q 259.79 216.88 250.85 219.55
  Q 249.60 219.29 248.97 220.24
  L 245.29 220.28
  Q 238.41 220.28 231.42 218.37
  Q 230.08 217.25 228.62 217.12
  L 215.68 211.09
  L 208.01 207.47
  L 204.71 206.04
  Q 204.37 205.86 204.33 205.75
  A 1.08 1.08 0.0 0 1 204.82 204.47
  L 289.94 155.08
  Z"
/>
<path fill="#9295ae" d="
  M 239.46 170.91
  L 238.96 174.15
  Q 238.89 174.62 238.48 174.86
  L 193.82 200.44
  Q 193.34 200.72 192.82 200.51
  L 189.79 199.26
  L 239.46 170.91
  Z"
/>
<path fill="#9295ae" d="
  M 339.38 171.27
  Q 344.45 172.36 347.70 176.24
  L 339.38 171.27
  Z"
/>
<path fill="#2aabbd" d="
  M 326.22 177.98
  L 326.22 187.98
  Q 326.24 187.92 326.26 187.85
  L 269.46 219.75
  Q 270.19 215.15 267.83 211.48
  L 326.22 177.98
  Z"
/>
<path fill="#2298c4" d="
  M 343.73 246.24
  Q 343.43 247.39 343.24 249.75
  Q 343.21 250.10 342.76 249.99
  Q 342.38 249.90 342.36 249.51
  L 341.86 237.76
  Q 341.86 237.70 341.85 237.71
  Q 341.80 237.79 341.76 237.87
  Q 341.68 238.02 341.44 237.81
  Q 341.34 237.72 341.25 237.62
  Q 341.18 237.54 341.09 237.59
  Q 335.91 240.21 333.01 245.20
  A 1.56 1.50 -86.7 0 1 332.35 245.81
  L 329.24 247.30
  Q 328.73 247.55 328.30 247.19
  Q 327.52 246.53 327.12 247.31
  Q 326.79 247.93 326.55 247.27
  Q 326.42 246.90 326.22 246.74
  L 326.26 187.85
  Q 326.24 187.92 326.22 187.98
  Q 330.61 185.66 334.83 183.14
  C 340.44 179.80 343.72 181.63 343.73 188.05
  Q 343.78 217.14 343.73 246.24
  Z"
/>
<path fill="#dfe2e8" d="
  M 326.26 187.85
  L 326.22 246.74
  L 326.23 268.75
  Q 326.49 285.04 325.97 290.24
  Q 325.13 298.69 318.44 302.44
  Q 308.68 307.92 298.95 313.45
  Q 296.59 314.79 294.09 315.65
  Q 289.64 314.90 289.05 310.52
  L 289.07 296.09
  A 2.13 2.12 -14.7 0 0 285.90 294.24
  Q 282.85 295.95 279.68 297.42
  C 272.51 300.75 274.51 287.76 274.51 284.80
  Q 274.52 280.54 274.46 276.19
  A 1.90 1.89 82.7 0 0 272.12 274.38
  L 268.79 275.20
  Q 268.84 249.11 269.30 223.41
  C 269.31 222.84 269.09 222.39 268.88 221.85
  Q 269.39 220.92 269.46 219.75
  L 326.26 187.85
  Z
  M 309.42 223.90
  Q 307.06 225.13 305.78 223.85
  C 306.72 212.05 289.70 219.94 302.85 229.93
  Q 303.49 230.35 303.07 231.62
  C 297.44 230.82 290.75 234.10 293.42 240.28
  C 295.23 244.44 302.05 241.01 305.21 239.61
  C 301.72 242.36 292.01 249.03 296.68 253.10
  C 299.16 255.27 304.12 250.35 305.50 248.54
  A 0.83 0.82 -69.2 0 1 306.21 248.22
  Q 306.80 248.25 306.80 248.79
  C 305.33 252.90 306.92 254.67 309.94 257.06
  A 1.34 1.32 12.5 0 1 310.40 257.77
  C 311.99 264.21 307.17 270.49 301.84 273.65
  A 2.41 2.41 0.0 0 0 300.94 276.83
  C 304.31 283.26 308.38 284.48 306.50 292.96
  A 1.17 1.17 0.0 0 0 308.11 294.29
  L 310.90 293.07
  A 0.95 0.92 -13.3 0 0 311.46 292.19
  Q 311.18 280.60 312.21 277.49
  C 314.14 271.61 325.02 243.12 319.99 239.15
  C 318.03 236.41 313.26 239.14 310.98 240.55
  A 0.10 0.10 0.0 0 1 310.83 240.50
  Q 310.79 240.38 310.75 240.25
  Q 310.70 240.09 310.84 239.99
  C 314.77 237.40 323.35 232.37 320.82 226.36
  A 1.20 1.20 0.0 0 0 320.18 225.72
  C 317.80 224.70 314.38 227.50 312.18 229.15
  L 311.85 228.26
  C 315.19 224.30 319.75 219.23 317.70 215.44
  Q 317.48 215.04 317.04 214.91
  C 312.06 213.52 309.65 219.76 309.42 223.90
  Z
  M 303.3441 266.2487
  A 3.72 2.63 130.5 0 0 307.7599 265.1280
  A 3.72 2.63 130.5 0 0 308.1759 260.5913
  A 3.72 2.63 130.5 0 0 303.7601 261.7120
  A 3.72 2.63 130.5 0 0 303.3441 266.2487
  Z"
/>
<path fill="#dfe2e8" d="
  M 237.74 301.99
  L 237.50 308.69
  Q 237.50 308.81 237.42 308.72
  L 237.24 308.52
  Q 237.04 308.29 237.06 308.60
  Q 237.09 309.15 237.00 309.73
  Q 236.88 310.49 236.53 309.80
  L 235.84 308.43
  Q 235.65 308.06 235.27 308.24
  Q 234.95 308.39 234.78 308.01
  Q 234.36 307.05 234.55 305.85
  Q 234.62 305.46 234.27 305.27
  Q 233.00 304.58 231.55 304.77
  Q 231.02 304.84 230.62 304.48
  Q 227.66 301.83 223.90 300.69
  Q 223.37 300.53 223.14 300.02
  C 222.04 297.58 218.98 297.15 216.63 296.44
  Q 216.20 296.32 215.95 295.95
  Q 214.11 293.30 209.74 291.51
  C 213.24 281.68 216.56 272.67 215.49 264.99
  Q 215.13 262.38 211.40 259.05
  Q 214.86 255.84 214.12 252.43
  C 212.75 246.16 207.40 248.44 203.19 248.71
  A 0.29 0.29 0.0 0 1 203.04 248.16
  C 206.74 246.37 215.05 240.93 209.27 236.06
  C 204.25 231.83 199.78 240.66 198.33 243.98
  A 0.30 0.30 0.0 0 1 197.76 243.89
  C 197.33 239.31 199.45 231.75 192.69 229.62
  Q 192.27 229.48 191.84 229.62
  C 185.43 231.78 191.86 240.48 194.76 243.50
  Q 195.02 243.77 194.82 244.14
  Q 194.64 244.48 194.37 244.20
  C 192.70 242.49 185.68 238.65 184.96 243.42
  C 183.99 249.79 189.49 251.25 194.54 251.57
  Q 195.39 251.62 194.64 252.03
  C 192.38 253.27 188.35 254.06 188.59 257.41
  Q 188.88 261.40 192.78 262.33
  C 197.08 263.36 198.82 257.98 199.92 254.53
  A 0.34 0.34 0.0 0 1 200.57 254.53
  L 202.13 259.66
  Q 202.48 263.53 206.07 265.46
  C 207.99 266.50 209.54 265.94 210.79 264.32
  A 0.21 0.21 0.0 0 1 211.16 264.46
  L 210.60 270.84
  Q 210.56 271.29 210.16 271.10
  Q 205.81 269.08 202.83 265.37
  A 0.96 0.96 0.0 0 0 201.14 265.81
  C 199.77 273.59 211.29 274.36 204.12 284.45
  A 1.40 1.38 -79.6 0 1 203.35 284.99
  Q 198.35 286.35 197.07 289.34
  Q 195.90 291.77 194.07 292.56
  A 2.33 2.32 -41.3 0 1 192.00 292.43
  Q 187.73 289.97 184.60 286.07
  C 181.32 281.99 176.04 287.35 173.18 285.58
  A 0.44 0.44 0.0 0 0 172.51 285.93
  Q 172.49 286.30 172.48 286.68
  A 0.22 0.21 -47.3 0 1 172.05 286.70
  L 171.87 284.48
  Q 171.75 283.00 171.30 284.42
  L 170.86 285.81
  Q 170.67 278.46 170.74 271.25
  C 170.78 267.41 167.81 266.08 164.95 265.27
  A 2.21 2.21 0.0 0 1 163.39 262.66
  Q 164.46 257.82 167.24 253.69
  Q 168.95 245.34 168.76 235.95
  C 168.70 232.79 169.93 230.94 172.42 229.36
  Q 177.99 225.81 186.19 221.26
  Q 186.89 220.87 186.12 220.64
  Q 166.54 214.86 162.91 231.69
  L 163.03 241.63
  Q 163.03 241.69 162.97 241.69
  Q 162.86 241.69 162.72 241.70
  A 0.02 0.02 0.0 0 1 162.70 241.68
  Q 162.90 240.93 162.54 240.30
  Q 162.38 240.03 162.15 240.25
  Q 161.37 241.04 160.31 240.46
  A 0.68 0.66 34.2 0 0 159.47 240.61
  C 156.79 243.73 154.23 243.58 149.81 243.48
  Q 149.30 243.46 148.93 243.81
  Q 147.13 245.46 146.89 247.90
  Q 146.89 247.92 146.87 247.93
  Q 146.86 247.93 146.84 247.94
  Q 146.78 247.95 146.77 247.89
  L 146.56 245.75
  L 146.52 192.92
  A 1.83 1.83 0.0 0 1 149.14 191.27
  Q 180.60 206.33 212.92 221.17
  C 220.64 224.72 228.49 229.60 237.23 230.48
  Q 237.74 230.53 237.74 231.05
  L 237.74 301.99
  Z
  M 204.5010 277.6553
  A 2.98 2.81 -8.0 0 0 201.1589 275.2873
  A 2.98 2.81 -8.0 0 0 198.5990 278.4847
  A 2.98 2.81 -8.0 0 0 201.9411 280.8527
  A 2.98 2.81 -8.0 0 0 204.5010 277.6553
  Z"
/>
<path fill="#9295ae" d="
  M 177.20 193.41
  L 180.55 195.03
  Q 178.59 195.24 177.20 193.41
  Z"
/>
<path fill="#9295ae" d="
  M 181.98 195.77
  L 186.02 197.51
  Q 182.67 197.29 181.98 195.77
  Z"
/>
<path fill="#9295ae" d="
  M 204.71 206.04
  L 208.01 207.47
  Q 205.19 207.61 204.71 206.04
  Z"
/>
<path fill="#9295ae" d="
  M 215.68 211.09
  L 228.62 217.12
  Q 221.80 215.25 215.68 211.09
  Z"
/>
<path fill="#112634" d="
  M 311.85 228.26
  L 309.42 223.90
  C 309.65 219.76 312.06 213.52 317.04 214.91
  Q 317.48 215.04 317.70 215.44
  C 319.75 219.23 315.19 224.30 311.85 228.26
  Z"
/>
<path fill="#112634" d="
  M 305.78 223.85
  C 305.26 226.00 302.91 225.77 302.85 229.93
  C 289.70 219.94 306.72 212.05 305.78 223.85
  Z"
/>
<path fill="#9295ae" d="
  M 231.42 218.37
  Q 238.41 220.28 245.29 220.28
  Q 237.58 221.66 231.42 218.37
  Z"
/>
<path fill="#9295ae" d="
  M 167.24 253.69
  Q 163.57 253.65 161.09 252.38
  C 164.13 246.30 163.51 239.06 162.91 231.69
  Q 166.54 214.86 186.12 220.64
  Q 186.89 220.87 186.19 221.26
  Q 177.99 225.81 172.42 229.36
  C 169.93 230.94 168.70 232.79 168.76 235.95
  Q 168.95 245.34 167.24 253.69
  Z"
/>
<path fill="#9295ae" d="
  M 250.85 219.55
  L 252.85 219.51
  A 0.08 0.08 0.0 0 1 252.86 219.67
  L 248.97 220.24
  Q 249.60 219.29 250.85 219.55
  Z"
/>
<path fill="#9295ae" d="
  M 137.43 221.74
  Q 138.58 241.37 137.58 261.01
  Q 136.68 241.38 137.43 221.74
  Z"
/>
<path fill="#1faaa2" d="
  M 268.88 221.85
  C 269.09 222.39 269.31 222.84 269.30 223.41
  Q 268.84 249.11 268.79 275.20
  L 265.04 279.08
  Q 264.92 279.21 264.76 279.14
  L 264.44 278.98
  Q 264.07 278.80 263.78 279.09
  L 261.84 281.03
  Q 261.63 281.24 261.93 281.25
  Q 262.09 281.25 262.26 281.24
  Q 263.46 281.13 262.25 281.58
  C 260.50 282.23 260.86 283.50 260.25 284.65
  Q 259.63 285.79 258.85 286.82
  Q 258.64 287.10 258.68 287.44
  L 258.79 288.19
  Q 258.85 288.66 258.50 288.98
  Q 256.50 290.83 253.76 290.11
  Q 253.34 290.00 253.18 290.40
  L 252.85 291.21
  A 0.34 0.33 64.9 0 1 252.22 290.98
  L 252.40 290.40
  A 0.39 0.39 0.0 0 0 251.92 289.91
  Q 250.45 290.35 249.55 289.51
  L 249.27 231.12
  Q 249.27 230.57 249.80 230.43
  C 256.98 228.53 262.37 225.25 268.88 221.85
  Z"
/>
<path fill="#1faaa2" d="
  M 305.78 223.85
  Q 307.06 225.13 309.42 223.90
  L 311.85 228.26
  L 312.18 229.15
  L 310.66 232.37
  A 0.61 0.61 0.0 0 1 309.88 232.67
  L 306.50 231.24
  A 0.26 0.26 0.0 0 0 306.14 231.48
  Q 306.18 233.92 305.23 233.72
  Q 305.24 231.95 303.07 231.62
  Q 303.49 230.35 302.85 229.93
  C 302.91 225.77 305.26 226.00 305.78 223.85
  Z"
/>
<path fill="#2aabbd" d="
  M 319.99 239.15
  L 316.97 244.79
  L 309.35 247.24
  Q 308.06 246.73 306.80 248.79
  Q 306.80 248.25 306.21 248.22
  A 0.83 0.82 -69.2 0 0 305.50 248.54
  C 304.12 250.35 299.16 255.27 296.68 253.10
  C 292.01 249.03 301.72 242.36 305.21 239.61
  Q 306.19 238.40 305.23 233.72
  Q 306.18 233.92 306.14 231.48
  A 0.26 0.26 0.0 0 1 306.50 231.24
  L 309.88 232.67
  A 0.61 0.61 0.0 0 0 310.66 232.37
  L 312.18 229.15
  C 314.38 227.50 317.80 224.70 320.18 225.72
  A 1.20 1.20 0.0 0 1 320.82 226.36
  C 323.35 232.37 314.77 237.40 310.84 239.99
  Q 310.70 240.09 310.75 240.25
  Q 310.79 240.38 310.83 240.50
  A 0.10 0.10 0.0 0 0 310.98 240.55
  C 313.26 239.14 318.03 236.41 319.99 239.15
  Z"
/>
<path fill="#dfa04a" d="
  M 211.40 259.05
  Q 210.39 256.64 208.45 255.51
  Q 204.64 253.30 202.13 259.66
  L 200.57 254.53
  A 0.34 0.34 0.0 0 0 199.92 254.53
  C 198.82 257.98 197.08 263.36 192.78 262.33
  Q 188.88 261.40 188.59 257.41
  C 188.35 254.06 192.38 253.27 194.64 252.03
  Q 195.39 251.62 194.54 251.57
  C 189.49 251.25 183.99 249.79 184.96 243.42
  C 185.68 238.65 192.70 242.49 194.37 244.20
  Q 194.64 244.48 194.82 244.14
  Q 195.02 243.77 194.76 243.50
  C 191.86 240.48 185.43 231.78 191.84 229.62
  Q 192.27 229.48 192.69 229.62
  C 199.45 231.75 197.33 239.31 197.76 243.89
  A 0.30 0.30 0.0 0 0 198.33 243.98
  C 199.78 240.66 204.25 231.83 209.27 236.06
  C 215.05 240.93 206.74 246.37 203.04 248.16
  A 0.29 0.29 0.0 0 0 203.19 248.71
  C 207.40 248.44 212.75 246.16 214.12 252.43
  Q 214.86 255.84 211.40 259.05
  Z"
/>
<path fill="#197bb9" d="
  M 303.07 231.62
  Q 305.24 231.95 305.23 233.72
  Q 306.19 238.40 305.21 239.61
  C 302.05 241.01 295.23 244.44 293.42 240.28
  C 290.75 234.10 297.44 230.82 303.07 231.62
  Z"
/>
<path fill="#ced1d9" d="
  M 162.91 231.69
  C 163.51 239.06 164.13 246.30 161.09 252.38
  C 158.25 258.40 155.63 267.54 164.64 269.84
  A 1.17 1.16 83.6 0 1 165.39 270.44
  Q 166.08 271.82 166.02 273.26
  C 165.72 281.20 163.06 294.50 171.66 297.90
  Q 176.93 299.98 182.00 301.89
  A 1.25 1.24 11.8 0 1 182.81 303.12
  C 182.67 305.72 181.65 314.93 185.79 315.01
  A 1.68 1.67 -89.3 0 0 187.49 313.34
  C 187.52 308.17 189.43 299.36 183.43 297.04
  Q 177.82 294.88 172.05 292.51
  A 1.28 1.25 88.5 0 1 171.37 291.85
  Q 170.20 289.14 170.86 285.81
  L 171.30 284.42
  Q 171.75 283.00 171.87 284.48
  L 172.05 286.70
  A 0.22 0.21 -47.3 0 0 172.48 286.68
  Q 172.49 286.30 172.51 285.93
  A 0.44 0.44 0.0 0 1 173.18 285.58
  C 176.04 287.35 181.32 281.99 184.60 286.07
  Q 187.73 289.97 192.00 292.43
  A 2.33 2.32 -41.3 0 0 194.07 292.56
  Q 195.90 291.77 197.07 289.34
  C 201.09 297.04 204.14 299.88 203.15 309.22
  A 1.23 1.23 0.0 0 0 203.40 310.12
  Q 204.71 311.80 206.82 311.63
  A 0.67 0.66 -1.0 0 0 207.43 311.01
  C 207.80 304.40 207.39 297.95 209.74 291.51
  Q 214.11 293.30 215.95 295.95
  Q 216.20 296.32 216.63 296.44
  C 218.98 297.15 222.04 297.58 223.14 300.02
  Q 223.37 300.53 223.90 300.69
  Q 227.66 301.83 230.62 304.48
  Q 231.02 304.84 231.55 304.77
  Q 233.00 304.58 234.27 305.27
  Q 234.62 305.46 234.55 305.85
  Q 234.36 307.05 234.78 308.01
  Q 234.95 308.39 235.27 308.24
  Q 235.65 308.06 235.84 308.43
  L 236.53 309.80
  Q 236.88 310.49 237.00 309.73
  Q 237.09 309.15 237.06 308.60
  Q 237.04 308.29 237.24 308.52
  L 237.42 308.72
  Q 237.50 308.81 237.50 308.69
  L 237.74 301.99
  Q 237.70 338.37 237.81 349.19
  Q 237.83 350.32 238.74 350.75
  Q 238.61 352.30 239.79 352.34
  Q 240.27 352.35 240.26 352.84
  Q 240.25 353.17 239.91 353.62
  C 234.56 352.85 230.69 351.14 224.68 348.03
  C 203.83 337.21 182.45 327.20 161.31 316.95
  C 150.23 311.58 146.53 300.27 146.42 288.60
  Q 146.22 267.19 146.56 245.75
  L 146.77 247.89
  Q 146.78 247.95 146.84 247.94
  Q 146.86 247.93 146.87 247.93
  Q 146.89 247.92 146.89 247.90
  Q 147.13 245.46 148.93 243.81
  Q 149.30 243.46 149.81 243.48
  C 154.23 243.58 156.79 243.73 159.47 240.61
  A 0.68 0.66 34.2 0 1 160.31 240.46
  Q 161.37 241.04 162.15 240.25
  Q 162.38 240.03 162.54 240.30
  Q 162.90 240.93 162.70 241.68
  A 0.02 0.02 0.0 0 0 162.72 241.70
  Q 162.86 241.69 162.97 241.69
  Q 163.03 241.69 163.03 241.63
  L 162.91 231.69
  Z"
/>
<path fill="#197bb9" d="
  M 343.73 246.24
  L 343.72 269.49
  Q 341.46 268.73 340.35 266.22
  Q 340.12 265.70 339.63 265.97
  Q 337.48 267.17 334.92 269.90
  Q 333.84 271.05 332.65 270.09
  Q 332.25 269.77 331.78 269.99
  L 329.07 271.31
  Q 328.60 271.55 328.56 271.02
  Q 328.42 269.06 326.23 268.75
  L 326.22 246.74
  Q 326.42 246.90 326.55 247.27
  Q 326.79 247.93 327.12 247.31
  Q 327.52 246.53 328.30 247.19
  Q 328.73 247.55 329.24 247.30
  L 332.35 245.81
  A 1.56 1.50 -86.7 0 0 333.01 245.20
  Q 335.91 240.21 341.09 237.59
  Q 341.18 237.54 341.25 237.62
  Q 341.34 237.72 341.44 237.81
  Q 341.68 238.02 341.76 237.87
  Q 341.80 237.79 341.85 237.71
  Q 341.86 237.70 341.86 237.76
  L 342.36 249.51
  Q 342.38 249.90 342.76 249.99
  Q 343.21 250.10 343.24 249.75
  Q 343.43 247.39 343.73 246.24
  Z"
/>
<path fill="#1761a4" d="
  M 319.99 239.15
  C 325.02 243.12 314.14 271.61 312.21 277.49
  Q 311.18 280.60 311.46 292.19
  A 0.95 0.92 -13.3 0 1 310.90 293.07
  L 308.11 294.29
  A 1.17 1.17 0.0 0 1 306.50 292.96
  C 308.38 284.48 304.31 283.26 300.94 276.83
  A 2.41 2.41 0.0 0 1 301.84 273.65
  C 307.17 270.49 311.99 264.21 310.40 257.77
  A 1.34 1.32 12.5 0 0 309.94 257.06
  C 306.92 254.67 305.33 252.90 306.80 248.79
  Q 308.06 246.73 309.35 247.24
  Q 310.60 252.19 314.50 252.99
  Q 315.09 253.11 315.22 252.53
  L 316.97 244.79
  L 319.99 239.15
  Z"
/>
<path fill="#dfe2e8" d="
  M 316.97 244.79
  L 315.22 252.53
  Q 315.09 253.11 314.50 252.99
  Q 310.60 252.19 309.35 247.24
  L 316.97 244.79
  Z"
/>
<path fill="#8b6f8b" d="
  M 161.09 252.38
  Q 163.57 253.65 167.24 253.69
  Q 164.46 257.82 163.39 262.66
  A 2.21 2.21 0.0 0 0 164.95 265.27
  C 167.81 266.08 170.78 267.41 170.74 271.25
  Q 170.67 278.46 170.86 285.81
  Q 170.20 289.14 171.37 291.85
  A 1.28 1.25 88.5 0 0 172.05 292.51
  Q 177.82 294.88 183.43 297.04
  C 189.43 299.36 187.52 308.17 187.49 313.34
  A 1.68 1.67 -89.3 0 1 185.79 315.01
  C 181.65 314.93 182.67 305.72 182.81 303.12
  A 1.25 1.24 11.8 0 0 182.00 301.89
  Q 176.93 299.98 171.66 297.90
  C 163.06 294.50 165.72 281.20 166.02 273.26
  Q 166.08 271.82 165.39 270.44
  A 1.17 1.16 83.6 0 0 164.64 269.84
  C 155.63 267.54 158.25 258.40 161.09 252.38
  Z"
/>
<path fill="#d26c51" d="
  M 211.40 259.05
  Q 215.13 262.38 215.49 264.99
  C 216.56 272.67 213.24 281.68 209.74 291.51
  C 207.39 297.95 207.80 304.40 207.43 311.01
  A 0.67 0.66 -1.0 0 1 206.82 311.63
  Q 204.71 311.80 203.40 310.12
  A 1.23 1.23 0.0 0 1 203.15 309.22
  C 204.14 299.88 201.09 297.04 197.07 289.34
  Q 198.35 286.35 203.35 284.99
  A 1.40 1.38 -79.6 0 0 204.12 284.45
  C 211.29 274.36 199.77 273.59 201.14 265.81
  A 0.96 0.96 0.0 0 1 202.83 265.37
  Q 205.81 269.08 210.16 271.10
  Q 210.56 271.29 210.60 270.84
  L 211.16 264.46
  A 0.21 0.21 0.0 0 0 210.79 264.32
  C 209.54 265.94 207.99 266.50 206.07 265.46
  Q 202.48 263.53 202.13 259.66
  Q 204.64 253.30 208.45 255.51
  Q 210.39 256.64 211.40 259.05
  Z"
/>
<ellipse fill="#2aabbd" cx="0.00" cy="0.00" transform="translate(305.76,263.42) rotate(130.5)" rx="3.72" ry="2.63"/>
<path fill="#127da5" d="
  M 343.72 269.49
  C 343.95 282.38 344.97 295.61 335.60 305.59
  Q 332.07 309.34 320.94 315.54
  Q 291.01 332.21 261.09 348.86
  Q 254.64 352.45 248.87 353.51
  Q 249.11 351.43 247.02 350.36
  Q 248.02 350.36 248.76 349.86
  Q 249.18 349.57 249.18 349.06
  L 249.55 289.51
  Q 250.45 290.35 251.92 289.91
  A 0.39 0.39 0.0 0 1 252.40 290.40
  L 252.22 290.98
  A 0.34 0.33 64.9 0 0 252.85 291.21
  L 253.18 290.40
  Q 253.34 290.00 253.76 290.11
  Q 256.50 290.83 258.50 288.98
  Q 258.85 288.66 258.79 288.19
  L 258.68 287.44
  Q 258.64 287.10 258.85 286.82
  Q 259.63 285.79 260.25 284.65
  C 260.86 283.50 260.50 282.23 262.25 281.58
  Q 263.46 281.13 262.26 281.24
  Q 262.09 281.25 261.93 281.25
  Q 261.63 281.24 261.84 281.03
  L 263.78 279.09
  Q 264.07 278.80 264.44 278.98
  L 264.76 279.14
  Q 264.92 279.21 265.04 279.08
  L 268.79 275.20
  L 272.12 274.38
  A 1.90 1.89 82.7 0 1 274.46 276.19
  Q 274.52 280.54 274.51 284.80
  C 274.51 287.76 272.51 300.75 279.68 297.42
  Q 282.85 295.95 285.90 294.24
  A 2.13 2.12 -14.7 0 1 289.07 296.09
  L 289.05 310.52
  L 286.39 312.55
  Q 286.02 312.83 285.85 313.26
  C 283.07 320.54 291.46 319.64 294.09 315.65
  Q 296.59 314.79 298.95 313.45
  Q 308.68 307.92 318.44 302.44
  Q 325.13 298.69 325.97 290.24
  Q 326.49 285.04 326.23 268.75
  Q 328.42 269.06 328.56 271.02
  Q 328.60 271.55 329.07 271.31
  L 331.78 269.99
  Q 332.25 269.77 332.65 270.09
  Q 333.84 271.05 334.92 269.90
  Q 337.48 267.17 339.63 265.97
  Q 340.12 265.70 340.35 266.22
  Q 341.46 268.73 343.72 269.49
  Z"
/>
<ellipse fill="#2abda7" cx="0.00" cy="0.00" transform="translate(201.55,278.07) rotate(-8.0)" rx="2.98" ry="2.81"/>
<path fill="#1faaa2" d="
  M 289.05 310.52
  Q 289.64 314.90 294.09 315.65
  C 291.46 319.64 283.07 320.54 285.85 313.26
  Q 286.02 312.83 286.39 312.55
  L 289.05 310.52
  Z"
/>
<path fill="#000000" d="
  M 354.71 353.78
  L 355.30 360.51
  A 0.30 0.30 0.0 0 1 355.20 360.76
  L 349.50 366.07
  A 0.30 0.30 0.0 0 1 348.99 365.87
  L 348.25 352.91
  A 0.30 0.30 0.0 0 0 348.01 352.63
  L 336.81 350.64
  A 0.30 0.30 0.0 0 1 336.66 350.12
  L 342.11 345.04
  A 0.30 0.30 0.0 0 1 342.37 344.96
  L 347.62 346.02
  A 0.30 0.30 0.0 0 0 347.98 345.70
  L 347.47 340.37
  A 0.30 0.30 0.0 0 1 347.57 340.12
  L 353.11 335.06
  A 0.30 0.30 0.0 0 1 353.61 335.26
  L 354.58 346.63
  A 0.30 0.30 0.0 0 0 354.83 346.90
  L 367.65 348.82
  A 0.30 0.30 0.0 0 1 367.81 349.34
  L 362.07 354.53
  A 0.30 0.30 0.0 0 1 361.82 354.61
  L 355.06 353.46
  A 0.30 0.30 0.0 0 0 354.71 353.78
  Z"
/>
<path fill="#57a4d7" d="
  M 247.02 350.36
  Q 249.11 351.43 248.87 353.51
  L 239.91 353.62
  Q 240.25 353.17 240.26 352.84
  Q 240.27 352.35 239.79 352.34
  Q 238.61 352.30 238.74 350.75
  L 247.02 350.36
  Z"
/>
<path fill="#000000" d="
  M 153.49 351.05
  A 0.30 0.30 0.0 0 1 153.89 350.92
  L 162.13 355.11
  A 16.54 16.14 27.0 0 1 169.53 377.00
  L 169.26 377.54
  A 16.54 16.14 27.0 0 1 147.20 384.41
  L 138.96 380.21
  A 0.30 0.30 0.0 0 1 138.83 379.81
  L 153.49 351.05
  Z
  M 157.19 360.46
  L 148.55 377.27
  A 0.35 0.35 0.0 0 0 148.70 377.74
  L 149.18 377.99
  A 9.71 9.59 -62.8 0 0 162.15 373.74
  L 162.23 373.58
  A 9.71 9.59 -62.8 0 0 158.14 360.56
  L 157.66 360.31
  A 0.35 0.35 0.0 0 0 157.19 360.46
  Z"
/>
<path fill="#000000" d="
  M 323.33 372.98
  L 322.05 370.92
  C 318.47 363.72 324.41 356.17 331.08 354.36
  C 340.81 351.72 348.63 361.82 342.86 370.35
  C 338.51 376.79 329.09 379.53 323.33 372.98
  Z
  M 337.61 365.32
  A 4.77 4.77 0.0 0 0 332.84 360.55
  A 4.77 4.77 0.0 0 0 328.07 365.32
  A 4.77 4.77 0.0 0 0 332.84 370.09
  A 4.77 4.77 0.0 0 0 337.61 365.32
  Z"
/>
<path fill="#000000" d="
  M 321.50 370.87
  L 323.02 373.33
  C 327.16 383.60 315.00 387.49 306.56 391.36
  Q 306.11 391.56 305.89 391.12
  L 291.85 362.72
  Q 291.62 362.26 292.07 361.99
  C 296.98 359.08 306.38 353.41 311.29 357.76
  Q 316.01 361.93 313.49 368.26
  Q 313.30 368.74 313.80 368.64
  Q 318.69 367.67 321.50 370.87
  Z
  M 301.01 364.24
  L 303.85 370.06
  A 0.32 0.32 0.0 0 0 304.28 370.21
  L 305.11 369.80
  A 4.27 3.28 -26.0 0 0 307.51 364.98
  L 307.27 364.48
  A 4.27 3.28 -26.0 0 0 301.99 363.40
  L 301.16 363.81
  A 0.32 0.32 0.0 0 0 301.01 364.24
  Z
  M 307.09 376.69
  L 310.01 382.69
  A 0.59 0.59 0.0 0 0 310.80 382.97
  L 312.85 381.97
  A 5.03 3.67 -26.0 0 0 315.76 376.46
  L 315.54 375.99
  A 5.03 3.67 -26.0 0 0 309.41 374.90
  L 307.36 375.90
  A 0.59 0.59 0.0 0 0 307.09 376.69
  Z"
/>
<path fill="#ffffff" d="
  M 157.19 360.46
  A 0.35 0.35 0.0 0 1 157.66 360.31
  L 158.14 360.56
  A 9.71 9.59 -62.8 0 1 162.23 373.58
  L 162.15 373.74
  A 9.71 9.59 -62.8 0 1 149.18 377.99
  L 148.70 377.74
  A 0.35 0.35 0.0 0 1 148.55 377.27
  L 157.19 360.46
  Z"
/>
<circle fill="#ffffff" cx="332.84" cy="365.32" r="4.77"/>
<path fill="#000000" d="
  M 182.17 367.06
  L 171.72 394.48
  Q 171.51 395.01 170.98 394.81
  L 165.15 392.57
  Q 164.54 392.34 164.78 391.73
  L 176.07 362.25
  Q 176.26 361.74 176.80 361.87
  C 180.16 362.74 182.92 364.77 186.06 365.62
  Q 187.91 366.12 189.78 366.60
  Q 190.31 366.74 190.16 367.27
  Q 187.61 376.64 185.31 386.00
  C 183.21 394.58 193.77 396.50 195.45 389.31
  C 196.96 382.85 198.96 376.44 200.57 369.97
  Q 200.69 369.51 201.15 369.63
  L 207.35 371.20
  A 0.52 0.51 14.2 0 1 207.73 371.82
  Q 205.24 381.84 202.65 391.58
  Q 199.53 403.35 187.04 400.44
  C 177.69 398.26 175.99 392.29 178.18 383.78
  Q 180.33 375.45 182.46 367.15
  A 0.15 0.15 0.0 0 0 182.17 367.06
  Z"
/>
<path fill="#ffffff" d="
  M 301.01 364.24
  A 0.32 0.32 0.0 0 1 301.16 363.81
  L 301.99 363.40
  A 4.27 3.28 -26.0 0 1 307.27 364.48
  L 307.51 364.98
  A 4.27 3.28 -26.0 0 1 305.11 369.80
  L 304.28 370.21
  A 0.32 0.32 0.0 0 1 303.85 370.06
  L 301.01 364.24
  Z"
/>
<path fill="#000000" d="
  M 278.35 398.87
  C 271.21 408.23 258.85 400.02 260.63 389.43
  C 261.65 383.37 268.55 379.13 274.59 382.11
  A 0.34 0.34 0.0 0 0 275.07 381.73
  L 271.85 367.68
  Q 271.69 367.01 272.37 366.85
  L 277.92 365.60
  Q 278.58 365.45 278.73 366.11
  L 286.12 398.35
  Q 286.24 398.88 285.72 399.01
  L 280.12 400.39
  A 0.67 0.67 0.0 0 1 279.31 399.88
  L 279.15 399.06
  A 0.45 0.45 0.0 0 0 278.35 398.87
  Z
  M 277.36 391.55
  A 4.77 4.77 0.0 0 0 272.59 386.78
  A 4.77 4.77 0.0 0 0 267.82 391.55
  A 4.77 4.77 0.0 0 0 272.59 396.32
  A 4.77 4.77 0.0 0 0 277.36 391.55
  Z"
/>
<path fill="#9295ae" d="
  M 321.50 370.87
  Q 321.48 371.14 322.05 370.92
  L 323.33 372.98
  L 323.02 373.33
  L 321.50 370.87
  Z"
/>
<circle fill="#000000" cx="253.39" cy="375.74" r="4.10"/>
<path fill="#000000" d="
  M 229.45 399.75
  L 227.27 406.00
  A 0.37 0.37 0.0 0 1 226.92 406.25
  L 219.71 406.25
  A 0.37 0.37 0.0 0 1 219.37 405.75
  L 232.01 373.41
  A 0.37 0.37 0.0 0 1 232.34 373.17
  L 238.72 372.95
  A 0.37 0.37 0.0 0 1 239.08 373.18
  L 252.52 405.48
  A 0.37 0.37 0.0 0 1 252.18 405.99
  L 244.95 406.01
  A 0.37 0.37 0.0 0 1 244.60 405.77
  L 242.29 399.73
  A 0.37 0.37 0.0 0 0 241.95 399.49
  L 229.80 399.50
  A 0.37 0.37 0.0 0 0 229.45 399.75
  Z
  M 232.36 392.34
  A 0.34 0.34 0.0 0 0 232.69 392.80
  L 238.90 392.71
  A 0.34 0.34 0.0 0 0 239.21 392.24
  L 235.99 384.21
  A 0.34 0.34 0.0 0 0 235.36 384.21
  L 232.36 392.34
  Z"
/>
<path fill="#ffffff" d="
  M 307.09 376.69
  A 0.59 0.59 0.0 0 1 307.36 375.90
  L 309.41 374.90
  A 5.03 3.67 -26.0 0 1 315.54 375.99
  L 315.76 376.46
  A 5.03 3.67 -26.0 0 1 312.85 381.97
  L 310.80 382.97
  A 0.59 0.59 0.0 0 1 310.01 382.69
  L 307.09 376.69
  Z"
/>
<rect fill="#000000" x="-6.44" y="-3.05" transform="translate(292.43,384.36) rotate(-19.7)" width="12.88" height="6.10" rx="0.42"/>
<path fill="#ffffff" d="
  M 232.36 392.34
  L 235.36 384.21
  A 0.34 0.34 0.0 0 1 235.99 384.21
  L 239.21 392.24
  A 0.34 0.34 0.0 0 1 238.90 392.71
  L 232.69 392.80
  A 0.34 0.34 0.0 0 1 232.36 392.34
  Z"
/>
<rect fill="#000000" x="-3.51" y="-10.24" transform="translate(255.62,394.32) rotate(-7.1)" width="7.02" height="20.48" rx="0.34"/>
<circle fill="#ffffff" cx="272.59" cy="391.55" r="4.77"/>
</svg>
